<?xml version="1.0" encoding="iso-8859-1"?>
<!-- Uploaded to: SVG Repo, www.svgrepo.com, Generator: SVG Repo Mixer Tools -->
<svg version="1.1" id="Layer_1" xmlns="http://www.w3.org/2000/svg" xmlns:xlink="http://www.w3.org/1999/xlink" 
	 viewBox="0 0 512.021 512.021" xml:space="preserve">
<path style="fill:#FEDEA1;" d="M10.332,271.997l15.283-15.616c67.106,0,95.906-28.8,135.765-68.659
	c21.76-21.76,50.688-33.741,81.459-33.741s59.699,11.981,81.459,33.741c21.76,21.76,33.741,50.688,33.741,81.459
	s-11.981,59.699-33.741,81.459c-20.54,20.548-68.659,68.659-68.659,135.765l-12.049,18.85L10.332,271.997z"/>
<path style="fill:#BFA779;" d="M152.336,475.79c-6.835,0-13.269-2.654-18.091-7.475c-9.993-9.993-9.993-26.231-0.009-36.215
	c4.83-4.83,11.255-7.492,18.099-7.492s13.269,2.662,18.099,7.492c9.984,9.984,9.984,26.223,0,36.207
	C165.596,473.136,159.162,475.79,152.336,475.79z"/>
<g>
	<polygon style="fill:#FF877F;" points="380.329,167.899 411.484,136.743 508.022,185.016 428.602,264.436 	"/>
	<polygon style="fill:#FF877F;" points="247.585,83.419 327.004,3.999 375.277,100.536 344.122,131.692 	"/>
</g>
<rect x="352.257" y="108.618" transform="matrix(0.707 -0.7072 0.7072 0.707 15.7896 306.5478)" style="fill:#BF655F;" width="51.2" height="51.2"/>
<g>
	<path style="fill:#573A32;" d="M511.683,184.419c-0.87-5.376-3.422-10.249-7.168-14.003c-1.92-1.92-4.156-3.55-6.647-4.796
		l-72.405-36.207c-1.673-0.836-3.447-1.195-5.205-1.647c-1.109-4.25-2.918-8.337-6.246-11.665l-18.099-18.099
		c-3.328-3.328-7.415-5.137-11.665-6.246c-0.444-1.758-0.811-3.533-1.638-5.205l-36.207-72.405
		c-1.246-2.492-2.876-4.727-4.796-6.647c-3.755-3.755-8.627-6.298-14.003-7.168c-8.124-1.314-16.384,1.348-22.204,7.168
		l-54.306,54.306c-5.82,5.82-8.482,14.08-7.168,22.204c0.87,5.376,3.413,10.249,7.168,14.003c1.92,1.92,4.156,3.55,6.656,4.796
		l72.405,36.198c1.673,0.836,3.447,1.195,5.205,1.647c1.109,4.25,2.918,8.337,6.246,11.665l18.099,18.099
		c3.328,3.328,7.415,5.129,11.665,6.246c0.444,1.758,0.811,3.533,1.638,5.205l36.207,72.405c1.246,2.492,2.876,4.727,4.796,6.656
		c3.755,3.755,8.627,6.298,14.003,7.168c8.124,1.323,16.384-1.348,22.204-7.168l54.306-54.306
		C510.335,200.803,512.997,192.543,511.683,184.419z M341.596,116.118l-72.405-36.207l54.306-54.306l36.207,72.405L341.596,116.118z
		 M359.704,134.218l18.099-18.099l18.099,18.099l-18.099,18.099L359.704,134.218z M432.109,242.83l-36.207-72.405l18.099-18.099
		l72.414,36.198L432.109,242.83z"/>
	<path style="fill:#573A32;" d="M152.327,178.676c-39.083,39.083-64.913,64.905-126.711,64.913
		c-10.351,0-19.686,6.238-23.654,15.804c-3.968,9.566-1.775,20.574,5.547,27.904l128.375,128.375
		c-3.857,1.835-7.518,4.198-10.709,7.39c-14.993,14.993-14.993,39.313,0,54.306c14.993,14.993,39.313,14.993,54.306,0
		c3.191-3.191,5.555-6.861,7.39-10.709l37.862,37.862c7.322,7.322,18.33,9.515,27.895,5.547
		c9.566-3.959,15.804-13.295,15.804-23.654c0-61.807,43.844-105.643,64.913-126.711c49.903-49.911,49.903-131.115,0-181.018
		C283.442,128.765,202.238,128.765,152.327,178.676z M161.381,459.252c-4.992,4.992-13.107,4.992-18.099,0
		c-4.992-4.992-4.992-13.107,0-18.099c4.992-4.992,13.107-4.992,18.099,0C166.373,446.145,166.373,454.26,161.381,459.252z
		 M315.245,341.586c-21.999,21.999-72.405,72.405-72.405,144.819C206.633,450.198,61.822,305.388,25.616,269.181
		c72.405,0,104.823-32.418,144.811-72.405s104.823-39.987,144.819,0C355.241,236.763,355.241,301.599,315.245,341.586z"/>
</g>
</svg>