<?xml version="1.0" encoding="utf-8"?>
<!-- Generator: Adobe Illustrator 26.0.1, SVG Export Plug-In . SVG Version: 6.00 Build 0)  -->
<svg version="1.1" id="Layer_1" xmlns="http://www.w3.org/2000/svg" xmlns:xlink="http://www.w3.org/1999/xlink" x="0px" y="0px"
	 viewBox="0 0 1190.6 841.9" style="enable-background:new 0 0 1190.6 841.9;" xml:space="preserve">
<style type="text/css">
	.st0{fill:#B57A74;}
	.st1{fill:#F0B9A4;}
	.st2{fill:#FBE9D8;}
</style>
<path class="st0" d="M696.5,785.3c-9.6-3.1-16.8,2.9-26.3,12c-19,18.3-44.6,25-70.7,22.7c-18-1.6-35.3-8.4-50.2-19.6
	c-3-2.3-7.4-3.2-7.7-7.8c-1-15.8-11.7-18.1-24.3-17.3c-28.9,2-56.1-2.8-80.2-19.9c-6.9-4.9-12.5-1-18.4,1.8
	c-33.5,16-68.3,20-102.3,4.1c-38.4-17.9-57.6-50.6-62-92.3c-4.6-44.5,15.4-76.4,51.5-99.9c11.7-7.6,24.7-8.9,35.4,0.6
	c10.3,9.2,14.7,21.9,10.6,36.1c-3.4,11.8-10.4,21.9-16.3,32.5c-13.4,24-2.6,48.2,24,53.8c5.8,1.2,11.7,1.3,17.6,3.1
	c16.5,5,25.9-4.1,21.7-21.3c-8.2-34.2-0.9-66.3,11.6-97.7c14.1-35.3,35.8-65.4,64.4-90.5c3.7-3.3,4.7-7,3.2-11.8
	c-1.7-5.2-5.4-6.3-10.2-6.5c-44.1-2.1-70.5-41.3-63.7-78c0.5-2.7,2.2-6.5-0.5-7.6c-25-10.7-17.5-35.7-22.3-54.1
	c-3.4-13.4-4.2-20.7-20.2-25c-49.4-13.1-75.5-66.4-58.7-115.7c9-26.3,22.8-49.5,49.4-61.3c25.4-11.2,50.7-5.6,75,4.9
	c9.6,4.1,15.4,3.9,23.6-4.9c33.1-35.5,73.9-57.1,121.8-67.7c17.2-3.8,34.7-7.7,51.9-10.1c32.2-4.6,64.2,0.9,95.6,10.3
	c37.5,11.1,72.1,26.6,103.6,50.5c17.2,13,24.5,31.7,36.6,47.5c12.8,16.7,23.7,35.1,28.4,56.4c1.8,8.1,7.9,7.1,14.4,5.6
	c42.9-10.2,75.6,11.3,88.2,53.8c14.1,47.7-13.7,100.6-62.2,115.7c-10.7,3.3-21.2,3.8-30.4,0.3c-10.7-4.1-12.8,1-16.5,8.3
	c-8.7,17.3-19,33.5-34.7,45.4c-6.1,4.6-7.1,11.2-7.6,17.6c-2.6,31.8-49.9,74-82.7,75.2c-11.2,0.4-21.1,11.5-34.2,4.5
	c-2.3-1.2-7.1,4.6-5,9.8c1,2.5,3.2,4.6,4.1,7.2c5.7,17.3,10.8,30.6,35.9,27.2c21.5-2.9,32.4,12.8,36.7,46.3
	c2.2,16.7,3.7,35.7-10.9,49.8c-2.8,2.8-1.7,5.6-0.7,9c14.5,50.6-17.2,94.5-70.1,97.2C708.6,785.5,704.2,785.3,696.5,785.3z
	 M975.2,301.5c10.2-30.6-20.8-72-52.3-69.8c-18.4,1.3-26.5,9.8-25.5,28.3c0.8,14,2.8,27.9,4.5,44c11.5-7.7,22.3-12.9,34.3-14.7
	c7.7-1.2,15.7-1.6,17.9,8.9c-43.6,14.1-55.5,22.9-56.6,53.9c-0.7,18.5,9.3,24,27.5,17.4C956.9,357.7,972.5,334.5,975.2,301.5z
	 M337.2,200.9c1.9-9.3,7.6-9.1,15-6.5c8.1,2.8,13.1,9.6,19.8,14.1c23,15.4,35.1,44.3,29.1,71c-5.8,25.8-7,51.2,3.9,76.1
	c1.9,4.4,2.5,10.9,9.8,6.2c8.1-5.2,17.1-3.3,25.7-4.4c16.9-2.2,35.3,2.7,50.2-9.4c8.4-6.7,18.3-9.9,28-13.4
	c37.2-13.4,62.4-37.5,70.8-77.2c0.7-3.3,1.1-7.1,5.5-6.6c4.3,0.4,7.3,2.8,6.3,7.8c-3.1,15.7-5.9,31.4-14.2,45.5
	c-2.9,4.9-12.5,8.6-4.5,16.3c6.3,6.1,13,8.5,22.4,4.7c33.2-13.3,58.4-34.6,72.4-68.2c1.9-4.5,3-10.6,9.8-8.2
	c6.6,2.3,4.4,8.3,3.5,12.9c-2.5,12-2.5,24.2-2.6,36.3c-0.2,23.9,16.2,34.3,38.3,24.4c9.9-4.4,17.5-11.7,21.6-21.9
	c4.1-10.2,7.6-20.6,11.4-31c1.3-3.6,2.2-8,7.2-7.7c4.7,0.3,5.9,4.6,7.1,8.2c3,8.9,5.1,18.1,8.8,26.7c12.8,29.8,34.2,53,58.2,74
	c4.2,3.6,5.7,7.7,5,13.1c-0.9,7.6-1.2,15.3-1.9,23c-0.3,3-3.1,6.8,1.4,8.5c4,1.5,5.7-2.5,7.5-4.9c11.9-15.6,20.3-33.4,24.3-52.2
	c13.3-64,6.5-125.4-25.5-183.5c-10.5-18.9-23-37.1-38.8-50.4c-22.5-18.9-48.8-33.4-77.9-42.2c-106.6-32.5-201.1-15-280.5,66.3
	c-6.2,6.4-11.2,8.4-20,3.4c-10.8-6.3-22.1-12.4-35.2-13.4c-47.8-3.7-77.9,24.6-81.6,76.8c-2.1,28.7,14.7,54.6,44,67.9
	c16.9,7.7,22.9,4.2,24.9-14.7c0.7-6.8-0.9-13.2-4.1-19.1C371.7,229.3,358.2,211.6,337.2,200.9z M603.8,802
	c21.3,0.5,39.8-3.7,54.8-17.8c13.9-13,14.6-24.7-0.5-36c-14.1-10.7-17.6-25-19.1-40.3c-4.6-45.1-19.2-60.4-63.8-65
	c-4-0.4-8-0.6-8.9-5.5c-1-5.1,1.7-8.4,6.1-10.6c9.4-4.6,19.2-4.7,29.1-2.1c31.7,8.2,50.5,31.1,52.7,61.1
	c2.4,31.1,21.7,51.6,34.5,76.3c1.5,2.9,4.1,3.4,6.9,3.5c18.5,0.8,36.6-1.1,52.3-12c25.1-17.6,27.4-50.6,5.5-70.6
	c-19.9-18.2-31.3-40.6-35.2-67.5c-2.6-17.3-6.8-34.3-11.3-51.2c-1.6-5.8-3.2-13.6-12-14c-14.7-0.7-29-4-43.5-6.3
	c-52.4-8.2-104.4-16.6-148.4-49.5c-4.6-3.4-8.8-5.1-12.8,0.1c-14.9,19.1-35.6,32.5-47.3,55c-18.4,35.1-34,70.8-31.7,110.9
	c0.9,15.8,1.5,33.1,9.7,47.9c18.4,33.2,65.8,55.1,102.7,45.9c13.1-3.3,17.7,0,24,11.4C559.7,787.6,577.3,803.6,603.8,802z
	 M669.1,301.1c-17.9,19.4-34.9,33.1-56.5,40.2c-13.9,4.6-26.7,6.5-36.6-7.9c-4.7-6.9-10.1-8.4-17.6-1.9
	c-13.8,12.1-30,20.4-47.2,26.7c-7.7,2.8-14.1,6.1-17.7,15.3c-3.4,8.7-11.2,12.8-21.2,5.1c-7.5-5.8-16.9-7.6-26.5-7.7
	c-18.3-0.2-23.3,5.4-23.3,23.7c-0.1,33.7,18.3,53.6,51.3,53c5.1-0.1,11.4-1.9,15.4,5.7c18.3,34.1,51.4,50.5,85.7,58
	c41.2,9,82.9,20.2,126.4,15c35.1-4.2,69.3-10.1,99-31.1c10.3-7.3,17.3-17.8,20.3-28.9c6.3-23.2,9.4-47.2,7.9-71.6
	c-0.5-8-3.3-13.9-8.6-18.8c-21.2-19.4-39.8-40.8-53-66.8c-22.9,28.4-41.4,37.9-61.8,34.1C682.5,339.2,668.8,327.9,669.1,301.1z
	 M273.9,662.4c4.4,20.8,3.9,45.9,29.4,66.2c36.1,28.8,72.5,27.8,106,14.6c8.3-3.3,7.8-6.9,4.3-13.6c-10.8-20.9-16.6-24.8-39.8-19.4
	c-23.4,5.4-39.9-6.8-52.7-21.8c-14.2-16.6-15.8-37.1-2-56.6c4.4-6.2,9.4-12.3,12.3-19.2c3.4-8,6.1-18.1-2.3-24.1
	c-7.1-5.1-15.5-3.1-22.6,3.3C286.9,609.4,273.2,629.7,273.9,662.4z M750.9,599.7c-5.9,2.1-17.6-0.4-15.4,12.4c3,18,10,34.7,21.8,49
	c6.1,7.4,11.7,5.8,14-3c2.6-10,5.3-20.2,5.5-30.4C777.2,611.8,765.7,600,750.9,599.7z"/>
<path class="st1" d="M317.6,215.4c3.6-52.2,33.8-80.6,81.6-76.8c13.1,1,24.4,7.1,35.2,13.4c8.8,5.1,13.8,3,20-3.4
	c79.5-81.3,173.9-98.8,280.5-66.3c29.1,8.9,55.4,23.3,77.9,42.2c15.8,13.2,28.3,31.5,38.8,50.4c32.1,58,38.9,119.5,25.5,183.5
	c-3.9,18.8-12.4,36.5-24.3,52.2c-1.8,2.4-3.5,6.5-7.5,4.9c-4.5-1.7-1.7-5.5-1.4-8.5c0.7-7.7,1-15.4,1.9-23c0.6-5.4-0.9-9.5-5-13.1
	c-24-21-45.4-44.2-58.2-74c-3.7-8.6-5.7-17.8-8.8-26.7c-1.2-3.6-2.4-7.9-7.1-8.2c-5-0.3-5.9,4.1-7.2,7.7c-3.8,10.3-7.4,20.8-11.4,31
	c-4.1,10.2-11.7,17.4-21.6,21.9c-22.1,10-38.6-0.5-38.3-24.4c0.1-12.1,0.1-24.3,2.6-36.3c0.9-4.5,3.1-10.6-3.5-12.9
	c-6.9-2.4-8,3.7-9.8,8.2c-13.9,33.5-39.2,54.8-72.4,68.2c-9.4,3.8-16.1,1.4-22.4-4.7c-8-7.7,1.6-11.4,4.5-16.3
	c8.3-14.1,11.1-29.9,14.2-45.5c1-5-2-7.4-6.3-7.8c-4.4-0.5-4.8,3.3-5.5,6.6c-8.3,39.7-33.6,63.8-70.8,77.2
	c-9.8,3.5-19.7,6.7-28,13.4c-14.9,12-33.3,7.1-50.2,9.4c-8.6,1.1-17.7-0.8-25.7,4.4c-7.3,4.7-7.9-1.8-9.8-6.2
	c-10.9-24.9-9.7-50.3-3.9-76.1c6-26.7-6.1-55.6-29.1-71c-6.7-4.5-11.7-11.3-19.8-14.1c-7.4-2.6-13-2.8-15,6.5
	c1.2,11.3-2.7,20.7-10,29.1C320.4,227.1,322.3,219.1,317.6,215.4z M584.8,222c-1.3-6.3-6.6-8.3-11.8-9.1c-4.6-0.6-6.7,3.5-6.4,7.5
	c0.4,5.3,4.1,9.2,9.3,9.6C580.6,230.4,583.5,226.8,584.8,222z"/>
<path class="st1" d="M603.8,802c-26.4,1.6-44.1-14.4-56.3-36.2c-6.3-11.3-10.9-14.7-24-11.4c-36.9,9.3-84.4-12.8-102.7-45.9
	c-8.2-14.9-8.8-32.1-9.7-47.9c-2.3-40.1,13.2-75.8,31.7-110.9c11.8-22.5,32.5-35.9,47.3-55c4-5.2,8.2-3.5,12.8-0.1
	c44,32.9,96,41.3,148.4,49.5c14.5,2.3,28.7,5.6,43.5,6.3c8.7,0.4,10.4,8.2,12,14c4.5,16.9,8.8,33.9,11.3,51.2
	c4,26.8,15.3,49.3,35.2,67.5c21.9,20,19.5,53-5.5,70.6c-15.7,11-33.7,12.8-52.3,12c-2.8-0.1-5.3-0.6-6.9-3.5
	c-12.8-24.7-32.2-45.2-34.5-76.3c-2.3-30-21-53-52.7-61.1c-9.9-2.5-19.7-2.5-29.1,2.1c-4.4,2.2-7,5.5-6.1,10.6c0.9,4.9,5,5,8.9,5.5
	c44.6,4.6,59.2,20,63.8,65c1.6,15.2,5,29.6,19.1,40.3c15.1,11.4,14.3,23,0.5,36C643.6,798.4,625.1,802.5,603.8,802z"/>
<path class="st2" d="M669.1,301.1c-0.3,26.8,13.5,38.1,35.9,42.2c20.4,3.8,38.9-5.7,61.8-34.1c13.2,26,31.8,47.4,53,66.8
	c5.4,4.9,8.1,10.9,8.6,18.8c1.5,24.4-1.7,48.4-7.9,71.6c-3,11-10,21.6-20.3,28.9c-29.7,21-63.9,26.9-99,31.1
	c-43.4,5.1-85.2-6-126.4-15c-34.3-7.5-67.4-23.9-85.7-58c-4.1-7.6-10.4-5.8-15.4-5.7c-32.9,0.6-51.3-19.3-51.3-53
	c0-18.3,5-23.8,23.3-23.7c9.6,0.1,19,1.9,26.5,7.7c10,7.8,17.8,3.6,21.2-5.1c3.6-9.2,10-12.5,17.7-15.3
	c17.2-6.3,33.4-14.6,47.2-26.7c7.5-6.6,12.9-5,17.6,1.9c9.9,14.3,22.6,12.5,36.6,7.9C634.2,334.2,651.1,320.5,669.1,301.1z
	 M628.9,463.8l-0.7-0.5l0.9,0.4c7.8,20.4,22.5,32.5,38,27.3c11-3.6,27.6-4.7,28-25.2c-20.8,14.1-39.8,15.8-58.2-0.7
	C635.2,463.5,631.6,464.2,628.9,463.8z M757.2,467.2c10.7,0.3,22.1-12,21-24.4c-0.9-10.1-5-19.9-16.7-20.9
	c-14.7-1.3-26.2,8.9-26.9,21.6C734,455.1,745.2,466.9,757.2,467.2z M579.7,445.8c10.6-0.4,20.7-11.4,19.6-24
	c-1.2-13.6-10.8-17.8-22.5-18.2c-12.4-0.4-23.7,11.6-22.4,23.4C556,440.5,566,444.5,579.7,445.8z"/>
<path class="st1" d="M273.9,662.4c-0.7-32.7,13-53.1,32.6-70.6c7.1-6.4,15.6-8.4,22.6-3.3c8.4,6.1,5.6,16.1,2.3,24.1
	c-2.9,6.9-7.9,13-12.3,19.2c-13.7,19.4-12.1,39.9,2,56.6c12.8,15,29.3,27.2,52.7,21.8c23.2-5.4,29-1.5,39.8,19.4
	c3.5,6.7,4,10.4-4.3,13.6c-33.6,13.2-70,14.1-106-14.6C277.8,708.3,278.2,683.2,273.9,662.4z"/>
<path class="st1" d="M953.9,298.1c-2.2-10.5-10.2-10-17.9-8.9c-11.9,1.8-22.8,7-34.3,14.7c-1.7-16.1-3.7-30-4.5-44
	c-1-18.5,7.1-27.1,25.5-28.3c31.5-2.2,62.5,39.2,52.3,69.8C968.1,300.3,961,299.2,953.9,298.1z"/>
<path class="st2" d="M953.9,298.1c7.1,1.1,14.1,2.2,21.2,3.3c-2.7,33.1-18.2,56.2-50.4,67.9c-18.2,6.6-28.2,1.1-27.5-17.4
	C898.4,321,910.3,312.2,953.9,298.1z"/>
<path class="st2" d="M317.6,215.4c4.7,3.7,2.8,11.7,9.7,14.7c7.3-8.4,11.2-17.8,10-29.1c21,10.7,34.5,28.4,45.2,48.6
	c3.1,5.9,4.8,12.3,4.1,19.1c-2,18.9-8,22.4-24.9,14.7C332.2,270,315.4,244.1,317.6,215.4z"/>
<path class="st1" d="M750.9,599.7c14.8,0.3,26.2,12.1,25.9,27.9c-0.2,10.2-2.9,20.5-5.5,30.4c-2.3,8.8-7.9,10.4-14,3
	c-11.8-14.2-18.8-31-21.8-49C733.4,599.3,745,601.7,750.9,599.7z"/>
<path class="st2" d="M584.8,222c-1.3,4.8-4.2,8.4-8.9,8c-5.2-0.4-8.9-4.2-9.3-9.6c-0.3-4,1.8-8.2,6.4-7.5
	C578.2,213.7,583.4,215.7,584.8,222z"/>
<path class="st0" d="M757.2,467.2c-12-0.3-23.2-12-22.6-23.6c0.7-12.8,12.3-22.9,26.9-21.6c11.7,1,15.9,10.8,16.7,20.9
	C779.3,455.1,767.9,467.4,757.2,467.2z"/>
<path class="st0" d="M579.7,445.8c-13.7-1.3-23.7-5.3-25.2-18.8c-1.4-11.9,10-23.8,22.4-23.4c11.7,0.4,21.3,4.6,22.5,18.2
	C600.4,434.4,590.3,445.4,579.7,445.8z"/>
<path class="st0" d="M628.9,463.8c2.7,0.4,6.3-0.3,8,1.2c18.4,16.5,37.3,14.8,58.2,0.7c-0.4,20.5-17,21.6-28,25.2
	c-15.5,5.1-30.1-6.9-38-27.3L628.9,463.8z"/>
<polygon class="st0" points="629,463.7 628.2,463.3 628.9,463.8 "/>
</svg>
