<?xml version="1.0" encoding="utf-8"?>
<!-- Generator: Adobe Illustrator 26.0.1, SVG Export Plug-In . SVG Version: 6.00 Build 0)  -->
<svg version="1.1" id="Layer_1" xmlns="http://www.w3.org/2000/svg" xmlns:xlink="http://www.w3.org/1999/xlink" x="0px" y="0px"
	 viewBox="0 0 1190.6 841.9" style="enable-background:new 0 0 1190.6 841.9;" xml:space="preserve">
<style type="text/css">
	.st0{fill:#B78580;}
	.st1{fill:#FCEAD2;}
	.st2{fill:#EECAB2;}
	.st3{fill:#D7A691;}
	.st4{fill:#F9E3B3;}
	.st5{fill:#EFCC9A;}
</style>
<g>
	<path class="st0" d="M367.7,700.3c-16.4-20-30,4.7-63.4-25.5c-24.1-2.6-49-3.2-55.2-32.8c-11.8-47.1-6.7-98.3-0.3-145.5
		c10-41.7,40.8-77.4,68.3-110c3.6-5.1,3.7-15.2,1.4-21.5c-22.9-62.2-19.9-123.4,5.2-184c11-21.9,31.9-42.5,16.1-68.9
		c-19.5-32.9-0.5-60,43.7-57.8c22.1,1.1,43.7,3.8,66.9-6.5c49-21.8,102.3-32.2,156.2-29.1c47.3,2.7,95.3,5.9,138.2,30.4
		c19,10.8,33.9-5,48.2-11.4c31.8-12,74.3,15.5,61.7,49.5c-7.3,32.7-28.1,35.8-6.7,70.1c29.1,57.8,47.6,118,35.2,183.8
		c-8.1,24-19.5,38.9-1.7,64.6c39.6,70.1,49.1,147.5-13.3,230.8c-8.7,11.6-25.4,17.4-38.5,25.6c-22.4,14.1-45,28.1-71.3,44.5
		c6.6,3.8,8.3,5.6,10,5.6c41.3,1,84.4,11.4,118.8-23.3c2-2,7.8-3.6,8.7-2.6c44.6,36.7,24.9,60-20.8,81.7
		c20.6,12.1,27.2,36.4,10.4,52.8c-19.7-3-39.6,11.6-60-5.2c-21-13.7-49.9-28.2-76.4-23.8c-27.9,4.2-49.6,16-79,8.2
		c-24.6,19-68.6-30.3-107.9-0.8c-13.2,7.9-29.1-0.2-43.2,1.3c-65.5,4.2-135.6-35.9-197.1,0.8c-41.1,22.1-90.7-27.1-78.4-67.3
		c4.4-13,39.7-37.2,54.5-36.3c22,1.4,44,3.9,66,6C365,702.6,366.4,701.5,367.7,700.3z M488.6,772.5c6.2-15.4,18.1-49.8-12-41.9
		c-2.9,6.5-5.7,13.1-8.6,19.6c1.5,6.7,2.9,13.4,4.4,20.1C476.4,781.3,481.4,783.9,488.6,772.5z M698.2,781.5
		c30.6-57.4-43.8-80.3-12.5-3C689.8,779.5,694,780.5,698.2,781.5z M745.7,766c-3.9-15.5,3.3-45-15-51c-16.7,7.3-9,25.3-7.7,39.2
		c0,9.1,0,18.3,0,27.4c1.9,0.8,3.8,1.7,5.7,2.6C734.4,778.1,740,772.1,745.7,766z M865.9,505c-3.1,43.2-6.3,85.8-26.1,125.2
		c31.2-18.9,31.1-57.8,44.9-88c17-52.1-2.4-103.4-32.3-145.9c-12.9-21.4,0.5-43.9,6.4-65.2c10.2-22.2,10.6-44.8,2.4-67.6
		c-10.9-29.9-21.7-60-33.7-89.5c-13.1-26.7-25.2-51.2,1.1-79.9c13.7-14.9-2-35.6-23.2-32.5C782.7,61.5,763.6,87,741.4,74
		c-66.7-43-157.4-35.3-232-21.8c-14.1,2.9-30.6,3.5-41.3,11.6c-33.9,30.5-76.1-1.5-110,20.1c-5.3,25,35.3,50.6,5.5,76.6
		c-48.6,57.7-46.5,144.7-21.2,213.1c10,21.3-40.5,50.4-48.3,73.7c-34.7,64.1-46.3,142.7-15.3,210.3c77.4-49.7,21.7,22.7,63.7,10.2
		c25.7-7.8,49.7-18.5,65.1-42.3c4.1,5.4,8.2,10.8,12.3,16.2c-13.5,13.7-26.9,27.4-42.8,43.7c69.7,72.6,139.3-6,202.4,40.7
		c26,24,62.7-21.8,93.8-14.2c28.3,1.9,50-11.5,73.9-20.8c25.9-10.1,35.5-37.6,57.4-52c27.1-34.2,37.9-79,38.2-122.3
		C850.7,512.8,858.3,508.9,865.9,505z M316.4,713.4c-46.8,4-60.5,20.9-42.1,55c20.3,38.1,58.3-15.8,155.6,0.4
		c18.5,1.7,28.4-27,3.9-27.1C394.5,734.9,355.6,722.3,316.4,713.4z M845.3,767.1c12.4-23.9,49.1-16.4,57.4-49.7
		c-40.5,4.4-73,28.6-114.9,20.4c-14.6-2.5-18.1,5.1-17.9,18.5c0.1,11.5,4.8,16.3,15.1,19.9c27.8,9.1,53.7,24.6,83.4,26.8
		c1.2-2.1,2.4-4.1,3.6-6.2C863.1,786.9,854.2,777,845.3,767.1z M548.4,787.4c18.4-14.8,24.3-34.9,15.9-48.1
		c-3.6-5.6-44.4-13.6-49.4-7.9c-13.2,15-5.2,31.8-2.9,53.4c11.9-7.5,19.9-12.5,27.8-17.4C542,772.6,544.9,779.1,548.4,787.4z
		 M669.6,781.2c0.9-1.9,1.8-3.9,2.7-5.8c-6.5-13.8-12.9-27.7-19.5-41.7C631.2,750,639,781.8,669.6,781.2z M624.8,751.4
		c-1.5-2.3-2.9-4.7-4.4-7c-10.4,6-20.7,12-31,18.1c9.6,4.1,19.2,8.3,29.5,12.7C621.7,764.1,623.3,757.7,624.8,751.4z"/>
	<path class="st1" d="M843,516.7c-0.4,43.3-11.1,88.1-38.2,122.3c-21.9,14.3-31.5,41.9-57.4,52c-24,9.3-45.6,22.7-73.9,20.7
		c-31.2-7.6-67.8,38.2-93.8,14.2c-62.7-46.9-132.2,32-202.4-40.7c15.9-16.2,29.4-29.9,42.8-43.7c4.8-3.5,11-6,14.2-10.5
		c46.7-60.6,43.3-132.8,34.2-205.1c11.1-2.2,17.8-9.1,27-14.6c-6.7-2.5-13.7-4.7-20.2-7.7c-150-20.6-109.1-265.4,37.7-246
		c26.8,3.3,55.2,10.1,69.8,39.2c30.6,46.9,31.7,89.7,69.3,16.1c43.5-61.8,85.9-68.1,141-35.8c73.3,49.5,59.9,184.2-19.2,220.8
		c-9.3,4.4-18.2,9.5-27.2,14.3c0.4,2.5,0.7,5,1.1,7.4c12.7-1.5,26.1-0.8,37.8-5c46.8-27.1,46.5,53.3,56.9,82.2
		c0.1,3.8,0.2,7.6,0.4,11.4C843,511,843,513.8,843,516.7z M657.4,315.4C657.2,315.4,657.6,315.4,657.4,315.4
		c8.1-56.8-70.5-59.4-68.1-7.8C582.3,374,659.3,385.1,657.4,315.4z M539.9,299.2c1.8-50.6-63.1-43.4-67.6-5.2
		C469.7,342.9,536,340.6,539.9,299.2z M701.7,291.1c1.5,39.6,66.8,57.6,61.1-4.1C762.2,247.3,699.2,251.4,701.7,291.1z M565.8,578.3
		c28.5-5.2,42.9-21.8,28.4-44.7c-7.6,8.7-15.4,17.2-23.3,25.6c-8.6-8.3-17.2-16.7-25.7-25c-2,5.8-7.5,14.1-5.4,16.8
		C547.8,561.8,558.4,570.8,565.8,578.3z M663,580c17.2,0.3,44.2-21.4,28.6-38.3c-25.5,12.2-25.3,37.6-47.8,2.2
		c-1.9-2.7-6.2-3.7-9.3-5.5C622,555.8,646.2,578.3,663,580z M715.9,547.4c7.4,33.9,54.1,32.1,60.5,0.5c2.1-19.3,1.4-20.5-10.9-24.7
		C757.6,555.8,750.4,559.8,715.9,547.4z M731.8,610.9c-3.9-0.3-5.6-1-6.4-0.4c-13.8,10.4-26.1,27.4-45.8,9.3
		c-0.9-0.8-6.2,0.9-6.6,2.2c-0.9,3.4-1.1,10.1,0.1,10.5C696,644.6,737.3,649.9,731.8,610.9z M578.3,622.4
		c26.1,21.8,54.1,34.6,66.8-5.7C623.8,618.5,603.7,620.2,578.3,622.4z"/>
	<path class="st2" d="M407.7,625.3c-15.4,23.8-39.3,34.5-65.1,42.3c-42,12.6,13.6-59.9-63.7-10.2c-31-67.6-19.4-146.3,15.3-210.3
		c8-23.4,58.4-52.4,48.4-73.7c-25.5-68.3-27.4-155.5,21.2-213.1c29.8-25.9-10.8-51.6-5.5-76.6c33.9-21.6,76.1,10.5,110-20.1
		c10.6-8,27.2-8.7,41.3-11.5C584,38.7,674.8,31,741.4,74c22.2,13,41.3-12.5,64.1-12.4c21.2-3.1,36.9,17.5,23.2,32.5
		c-26.3,28.8-14.2,53.2-1.1,79.9c-96-64.1-134.9-33-208.2,40.4c-86.6-152.5-277.7-61.7-256.1,97.5c9,87.6,76.4,81.4,84.9,129.5
		C456.5,508.7,453.1,571,407.7,625.3z"/>
	<path class="st3" d="M407.7,625.3c45.4-54.3,48.8-116.6,40.5-183.8C439.8,393.8,372,399,363.3,312
		c-21.6-159.3,169.6-249.9,256.1-97.5c73.4-73.6,112.3-104.4,208.2-40.4c12,29.5,22.8,59.5,33.7,89.5c8.2,22.8,7.8,45.4-2.4,67.6
		c-66,97.5-12,32.4,6.9,173.9c-7.6,3.9-15.3,7.7-22.9,11.6c0-2.8,0-5.6,0-8.5c1.1-4.6,2.3-9.1,3.4-13.7c-1.3,0.8-2.5,1.5-3.8,2.3
		c-10.4-28.9-10.1-109.3-56.9-82.2c-11.7,4.2-25.2,3.5-37.8,5c-0.4-2.5-0.7-5-1.1-7.4c9.1-4.8,17.9-10,27.2-14.3
		c79.1-36.5,92.5-171.3,19.2-220.8c-55.1-32.3-97.5-25.9-141,35.8c-37.2,73.5-39.2,30.3-69.3-16.1c-14.6-29-43.1-35.8-69.8-39.1
		c-146.8-19.3-187.6,225.4-37.7,246c6.5,3,13.4,5.2,20.2,7.7c-9.3,5.6-15.9,12.4-27,14.6c9.1,72.2,12.5,144.6-34.2,205.1
		c-3.2,4.6-9.4,7.1-14.2,10.5C415.9,636.1,411.8,630.7,407.7,625.3z"/>
	<path class="st3" d="M316.4,713.4c39.2,8.9,78.1,21.4,117.5,28.2c24.4,0,14.6,28.8-3.9,27.1c-97.3-16.2-135.3,37.8-155.6-0.4
		C255.9,734.3,269.7,717.5,316.4,713.4z"/>
	<path class="st2" d="M865.9,505c-18.9-141.5-73-76.4-6.9-173.9c-27.9,60.3,2.2,66.9,22.3,116.6c7.2,30.6,16.2,62.3,3.5,94.5
		c-13.9,30.1-13.7,69.1-44.9,88C859.6,590.8,862.8,548.2,865.9,505z"/>
	<path class="st3" d="M845.3,767.1c8.9,10,17.8,19.8,26.7,29.7c-1.2,2.1-2.4,4.1-3.6,6.2c-29.7-2.2-55.5-17.7-83.4-26.8
		c-10.4-3.5-15-8.3-15.1-19.9c-0.2-13.4,3.3-21,17.9-18.5c42,8.2,74.5-16,114.9-20.4C894.4,750.7,857.7,743.2,845.3,767.1z"/>
	<path class="st4" d="M548.4,787.4c-3.5-8.2-6.4-14.8-8.6-20c-7.9,4.9-15.8,10-27.8,17.4c-2.3-21.6-10.3-38.4,2.9-53.4
		c5-5.7,45.8,2.4,49.4,7.9C572.7,752.6,566.8,772.6,548.4,787.4z"/>
	<path class="st4" d="M723,754.2c-1.3-13.8-9.1-31.8,7.7-39.2c18.3,6,11,35.5,15,51C738.1,762.1,730.6,758.1,723,754.2z"/>
	<path class="st5" d="M669.6,781.2c-30.7,0.6-38.4-31.3-16.8-47.6c6.6,14.1,13.1,27.9,19.5,41.7
		C671.5,777.4,670.6,779.3,669.6,781.2z"/>
	<path class="st4" d="M685.6,778.5c-31.3-77.4,43.2-54.3,12.5,3c-3,0-5.2,5.9-11.9-2.9"/>
	<path class="st2" d="M624.8,751.4c-1.6,6.4-3.1,12.7-5.9,23.7c-10.3-4.4-19.9-8.5-29.5-12.7c10.4-6,20.7-12,31-18.1
		C621.9,746.7,623.4,749,624.8,751.4z"/>
	<path class="st5" d="M468,750.1c2.9-6.5,5.7-13.1,8.6-19.6c4,14,8,27.9,12,41.9c-7.1,11.5-12.2,8.8-16.1-2.3
		C471,763.5,469.5,756.8,468,750.1z"/>
	<path class="st5" d="M723,754.2c7.5,3.9,15.1,7.9,22.6,11.8c-5.6,6.1-11.3,12.2-17,18.2c-1.9-0.8-3.8-1.7-5.7-2.6
		C723,772.5,723,763.3,723,754.2z"/>
	<path class="st4" d="M488.6,772.5c-4-14-8-27.9-12-41.9C506.6,722.6,494.7,757.1,488.6,772.5z"/>
	<path class="st4" d="M468,750.1c1.5,6.7,2.9,13.4,4.4,20.1C471,763.5,469.5,756.8,468,750.1z"/>
	<path class="st0" d="M657.5,315.7c1.5,69.6-75.3,58-68.2-8.1c-2.4-51.6,76.3-49,68.1,7.8C657.6,315.4,657.2,315.7,657.5,315.7z
		 M629.3,293.4c-4,0.4-8,0.8-12,1.2c-13.3,17.4-11.4,36.2,5.2,50.9C641.6,332.4,643.9,314.8,629.3,293.4z"/>
	<path class="st0" d="M539.9,299.2c-3.9,41.4-70.1,43.8-67.6-5.2C476.7,255.7,541.7,248.6,539.9,299.2z"/>
	<path class="st0" d="M701.7,291.1c-2.5-39.7,60.5-43.8,61.1-4.1C768.5,348.7,703.2,330.7,701.7,291.1z"/>
	<path class="st3" d="M565.8,578.3c-7.5-7.5-18-16.5-26.1-27.3c-2.1-2.7,3.4-11,5.4-16.8c8.6,8.3,17.2,16.7,25.7,25
		c7.9-8.4,15.7-16.9,23.3-25.6C608.8,556.5,594.3,573.1,565.8,578.3z"/>
	<path class="st3" d="M663,580c-16.8-1.7-41-24.2-28.6-41.6c3.2,1.8,7.5,2.8,9.3,5.5c22.5,35.4,22.3,10,47.8-2.2
		C707.2,558.6,680.2,580.3,663,580z"/>
	<path class="st3" d="M715.9,547.4c34.5,12.4,41.8,8.4,49.6-24.2c12.3,4.2,12.9,5.4,10.9,24.7C770,579.4,723.3,581.3,715.9,547.4z"
		/>
	<path class="st3" d="M731.8,610.9c5.6,39-35.8,33.7-58.7,21.6c-1.2-0.4-1-7.1-0.1-10.5c0.3-1.3,5.7-3,6.6-2.2
		c19.7,18.1,32.1,1.1,45.8-9.3C726.1,609.9,727.9,610.6,731.8,610.9z"/>
	<path class="st2" d="M578.3,622.4c25.3-2.1,45.4-3.9,66.8-5.7C632.4,657,604.5,644.2,578.3,622.4z"/>
	<path class="st0" d="M842.6,496.8c1.3-0.8,2.5-1.5,3.8-2.3c-1.1,4.6-2.3,9.1-3.4,13.7C842.9,504.4,842.7,500.6,842.6,496.8z"/>
	<path class="st4" d="M629.3,293.4c14.6,21.3,12.3,39-6.9,52.1c-16.5-14.7-18.4-33.5-5.2-50.9C617.3,295.5,622.6,288.1,629.3,293.4"
		/>
</g>
</svg>
