<?xml version="1.0" encoding="utf-8"?>
<!-- Uploaded to: SVG Repo, www.svgrepo.com, Generator: SVG Repo Mixer Tools -->
<svg width="800px" height="800px" viewBox="0 0 1024 1024" class="icon"  version="1.1" xmlns="http://www.w3.org/2000/svg"><path d="M38.034286 744.594286h893.805714v143.36c0 24.868571-36.571429 45.348571-83.382857 45.348571H321.828571c-54.125714 0-86.308571-16.091429-112.64-38.034286L38.034286 744.594286z" fill="#EEECF6" /><path d="M848.457143 943.542857H321.828571c-61.44 0-96.548571-21.942857-119.954285-40.96L30.72 751.908571c-2.925714-2.925714-4.388571-7.314286-2.925714-11.702857 1.462857-4.388571 5.851429-7.314286 10.24-7.314285h893.805714c5.851429 0 10.24 4.388571 10.24 10.24v143.36c0 32.182857-40.96 57.051429-93.622857 57.051428zM65.828571 754.834286l150.674286 131.657143c21.942857 17.554286 51.2 36.571429 105.325714 36.571428h526.628572c42.422857 0 71.68-17.554286 71.68-35.108571v-133.12H65.828571z" fill="#141515" /><path d="M607.085714 43.885714L187.245714 740.205714h419.84z" fill="#EDF3BF" /><path d="M617.325714 751.908571H169.691429L617.325714 5.851429v746.057142z m-411.062857-21.942857h390.582857V80.457143L206.262857 729.965714z" fill="#141515" /><path d="M277.942857 590.994286l-45.348571 74.605714h374.491428v-74.605714z" fill="#B2D577" /><path d="M617.325714 675.84H215.04l57.051429-95.085714h345.234285v95.085714z m-365.714285-20.48h345.234285v-54.125714H283.794286l-32.182857 54.125714z" fill="#141515" /><path d="M427.154286 343.771429l-81.92 134.582857h261.851428v-134.582857z" fill="#EC748B" /><path d="M607.085714 488.594286H345.234286c-4.388571 0-7.314286-1.462857-8.777143-5.851429-1.462857-2.925714-1.462857-7.314286 0-10.24l80.457143-134.582857c1.462857-2.925714 5.851429-4.388571 8.777143-4.388571h179.931428c5.851429 0 10.24 4.388571 10.24 10.24v134.582857c1.462857 5.851429-2.925714 10.24-8.777143 10.24zM364.251429 468.114286h232.594285v-114.102857H433.005714L364.251429 468.114286z" fill="#141515" /><path d="M605.622857 263.314286l216.502857 476.891428H605.622857z" fill="#90CED9" /><path d="M823.588571 751.908571s-1.462857 0 0 0H605.622857c-5.851429 0-10.24-4.388571-10.24-10.24V263.314286c0-4.388571 2.925714-8.777143 8.777143-10.24 4.388571-1.462857 10.24 1.462857 11.702857 5.851428l216.502857 475.428572c1.462857 1.462857 1.462857 4.388571 1.462857 5.851428 0 5.851429-4.388571 11.702857-10.24 11.702857z m-207.725714-21.942857h190.171429l-190.171429-418.377143v418.377143z" fill="#141515" /><path d="M689.005714 449.097143l61.44 134.582857h-144.822857v-134.582857z" fill="#E8BAF2" /><path d="M766.537143 593.92H595.382857V438.857143h100.937143l70.217143 155.062857z m-150.674286-20.48h118.491429l-52.662857-114.102857H614.4v114.102857z" fill="#141515" /><path d="M43.885714 874.788571C43.885714 901.12 74.605714 921.6 111.177143 921.6c35.108571 0 64.365714-19.017143 67.291428-43.885714 2.925714 24.868571 32.182857 43.885714 67.291429 43.885714 35.108571 0 64.365714-19.017143 67.291429-43.885714 2.925714 24.868571 32.182857 43.885714 67.291428 43.885714 35.108571 0 64.365714-19.017143 67.291429-43.885714 2.925714 24.868571 32.182857 43.885714 67.291428 43.885714 35.108571 0 64.365714-19.017143 67.291429-43.885714 2.925714 24.868571 32.182857 43.885714 67.291428 43.885714 35.108571 0 64.365714-19.017143 67.291429-43.885714 2.925714 24.868571 32.182857 43.885714 67.291429 43.885714 35.108571 0 64.365714-19.017143 67.291428-43.885714 2.925714 24.868571 32.182857 43.885714 67.291429 43.885714 36.571429 0 65.828571-21.942857 67.291428-48.274286h2.925715v133.12H39.497143v-133.12H43.885714z" fill="#6ABAD6" /><path d="M985.965714 1018.148571H39.497143c-5.851429 0-10.24-4.388571-10.24-10.24v-133.12c0-5.851429 4.388571-10.24 10.24-10.24H43.885714c5.851429 0 10.24 4.388571 10.24 10.24 0 20.48 26.331429 38.034286 57.051429 38.034286 29.257143 0 54.125714-16.091429 57.051428-35.108571 0-5.851429 4.388571-8.777143 10.24-8.777143 5.851429 0 10.24 4.388571 10.24 8.777143 2.925714 20.48 27.794286 35.108571 57.051429 35.108571s54.125714-16.091429 57.051429-35.108571c0-5.851429 4.388571-8.777143 10.24-8.777143 5.851429 0 10.24 4.388571 10.24 8.777143 2.925714 20.48 27.794286 35.108571 57.051428 35.108571s54.125714-16.091429 57.051429-35.108571c0-5.851429 4.388571-8.777143 10.24-8.777143 5.851429 0 10.24 4.388571 10.24 8.777143 2.925714 20.48 27.794286 35.108571 57.051428 35.108571s54.125714-16.091429 57.051429-35.108571c0-5.851429 4.388571-8.777143 10.24-8.777143 5.851429 0 10.24 4.388571 10.24 8.777143 2.925714 20.48 27.794286 35.108571 57.051428 35.108571s54.125714-16.091429 57.051429-35.108571c0-5.851429 4.388571-8.777143 10.24-8.777143 5.851429 0 10.24 4.388571 10.24 8.777143 2.925714 20.48 27.794286 35.108571 57.051429 35.108571s54.125714-16.091429 57.051428-35.108571c0-5.851429 4.388571-8.777143 10.24-8.777143 5.851429 0 10.24 4.388571 10.24 8.777143 2.925714 20.48 27.794286 35.108571 57.051429 35.108571 30.72 0 55.588571-17.554286 57.051428-38.034286 0-5.851429 4.388571-10.24 10.24-10.24h2.925715c5.851429 0 10.24 4.388571 10.24 10.24v133.12c-2.925714 5.851429-7.314286 10.24-13.165715 10.24z m-936.228571-20.48h925.988571v-86.308571c-14.628571 13.165714-36.571429 21.942857-59.977143 21.942857-29.257143 0-54.125714-11.702857-67.291428-29.257143-13.165714 17.554286-38.034286 29.257143-67.291429 29.257143-29.257143 0-54.125714-11.702857-67.291428-29.257143-13.165714 17.554286-38.034286 29.257143-67.291429 29.257143-29.257143 0-54.125714-11.702857-67.291428-29.257143-13.165714 17.554286-38.034286 29.257143-67.291429 29.257143-29.257143 0-54.125714-11.702857-67.291429-29.257143-13.165714 17.554286-38.034286 29.257143-67.291428 29.257143-29.257143 0-54.125714-11.702857-67.291429-29.257143-13.165714 17.554286-38.034286 29.257143-67.291428 29.257143s-54.125714-11.702857-67.291429-29.257143c-13.165714 17.554286-38.034286 29.257143-67.291428 29.257143-24.868571 0-46.811429-8.777143-59.977143-21.942857v86.308571z" fill="#141515" /></svg>