<?xml version="1.0" encoding="utf-8"?>
<!-- Uploaded to: SVG Repo, www.svgrepo.com, Generator: SVG Repo Mixer Tools -->
<svg width="800px" height="800px" viewBox="0 0 1024 1024" class="icon"  version="1.1" xmlns="http://www.w3.org/2000/svg"><path d="M163.84 456.411429h650.971429c54.125714 0 96.548571 43.885714 96.548571 96.548571v179.931429H111.177143V507.611429c0-27.794286 23.405714-51.2 52.662857-51.2z" fill="#FAD311" /><path d="M911.36 743.131429H111.177143c-5.851429 0-10.24-4.388571-10.24-10.24V507.611429c0-35.108571 27.794286-62.902857 62.902857-62.902858h650.971429c59.977143 0 108.251429 48.274286 108.251428 108.251429v179.931429c-1.462857 5.851429-5.851429 10.24-11.702857 10.24z m-789.942857-20.48h779.702857V552.96c0-48.274286-39.497143-86.308571-86.308571-86.308571H163.84c-23.405714 0-42.422857 19.017143-42.422857 42.422857v213.577143z" fill="#141515" /><path d="M61.44 702.171429h902.582857c13.165714 0 23.405714 10.24 23.405714 23.405714v27.794286c0 13.165714-10.24 23.405714-23.405714 23.405714H61.44c-13.165714 0-23.405714-10.24-23.405714-23.405714v-27.794286c0-13.165714 10.24-23.405714 23.405714-23.405714z" fill="#6E7377" /><path d="M962.56 787.017143H61.44c-19.017143 0-33.645714-14.628571-33.645714-33.645714v-27.794286c0-19.017143 14.628571-33.645714 33.645714-33.645714h902.582857c19.017143 0 33.645714 14.628571 33.645714 33.645714v27.794286c-1.462857 19.017143-16.091429 33.645714-35.108571 33.645714zM61.44 712.411429c-7.314286 0-13.165714 5.851429-13.165714 13.165714v27.794286c0 7.314286 5.851429 13.165714 13.165714 13.165714h902.582857c7.314286 0 13.165714-5.851429 13.165714-13.165714v-27.794286c0-7.314286-5.851429-13.165714-13.165714-13.165714H61.44z" fill="#141515" /><path d="M57.051429 642.194286h55.588571v61.44H57.051429z" fill="#6E7377" /><path d="M112.64 712.411429H57.051429c-5.851429 0-10.24-4.388571-10.24-10.24v-61.44c0-5.851429 4.388571-10.24 10.24-10.24h55.588571c5.851429 0 10.24 4.388571 10.24 10.24V702.171429c0 5.851429-4.388571 10.24-10.24 10.24z m-45.348571-20.48H102.4v-39.497143H67.291429v39.497143z" fill="#141515" /><path d="M285.257143 197.485714h345.234286c78.994286 0 128.731429 67.291429 144.822857 144.822857l23.405714 112.64h-541.257143V225.28c0-14.628571 13.165714-27.794286 27.794286-27.794286z" fill="#FAD311" /><path d="M800.182857 466.651429H257.462857c-5.851429 0-10.24-4.388571-10.24-10.24V225.28c0-20.48 17.554286-38.034286 38.034286-38.034286h345.234286c90.697143 0 138.971429 78.994286 155.062857 153.6l23.405714 111.177143c0 1.462857 1.462857 2.925714 1.462857 4.388572 0 4.388571-4.388571 10.24-10.24 10.24z m-532.48-21.942858h519.314286l-20.48-100.937142c-14.628571-65.828571-57.051429-136.045714-134.582857-136.045715H285.257143c-10.24 0-17.554286 7.314286-17.554286 17.554286v219.428571z" fill="#141515" /><path d="M712.411429 456.411429H257.462857V263.314286h310.125714c74.605714 0 119.954286 67.291429 134.582858 144.822857l10.24 48.274286z" fill="#90CED9" /><path d="M724.114286 466.651429H247.222857V253.074286h320.365714c70.217143 0 125.805714 58.514286 144.822858 153.6l11.702857 59.977143z m-456.411429-21.942858h431.542857l-7.314285-35.108571c-13.165714-65.828571-52.662857-136.045714-124.342858-136.045714H267.702857v171.154285z" fill="#141515" /><path d="M393.508571 263.314286h46.811429v193.097143h-46.811429z" fill="#EDA127" /><path d="M438.857143 466.651429h-46.811429c-5.851429 0-10.24-4.388571-10.24-10.24V263.314286c0-5.851429 4.388571-10.24 10.24-10.24H438.857143c5.851429 0 10.24 4.388571 10.24 10.24v193.097143c1.462857 4.388571-4.388571 10.24-10.24 10.24z m-35.108572-21.942858h26.331429V273.554286h-26.331429v171.154285z" fill="#141515" /><path d="M263.314286 890.88c64.365714 0 118.491429-52.662857 118.491428-118.491429 0-64.365714-52.662857-118.491429-118.491428-118.491428-64.365714 0-118.491429 52.662857-118.491429 118.491428 1.462857 65.828571 54.125714 118.491429 118.491429 118.491429z" fill="#A1A69C" /><path d="M263.314286 901.12c-70.217143 0-128.731429-57.051429-128.731429-128.731429C134.582857 702.171429 191.634286 643.657143 263.314286 643.657143c70.217143 0 128.731429 57.051429 128.731428 128.731428s-57.051429 128.731429-128.731428 128.731429z m0-235.52c-59.977143 0-106.788571 48.274286-106.788572 106.788571 0 59.977143 48.274286 106.788571 106.788572 106.788572 59.977143 0 106.788571-48.274286 106.788571-106.788572 1.462857-58.514286-46.811429-106.788571-106.788571-106.788571z" fill="#141515" /><path d="M263.314286 773.851429m-55.588572 0a55.588571 55.588571 0 1 0 111.177143 0 55.588571 55.588571 0 1 0-111.177143 0Z" fill="#DAD9B4" /><path d="M263.314286 839.68c-36.571429 0-65.828571-29.257143-65.828572-65.828571s29.257143-65.828571 65.828572-65.828572 65.828571 29.257143 65.828571 65.828572-29.257143 65.828571-65.828571 65.828571z m0-111.177143c-24.868571 0-45.348571 20.48-45.348572 45.348572 0 24.868571 20.48 45.348571 45.348572 45.348571 24.868571 0 45.348571-20.48 45.348571-45.348571 0-24.868571-20.48-45.348571-45.348571-45.348572z" fill="#141515" /><path d="M754.834286 890.88c64.365714 0 118.491429-52.662857 118.491428-118.491429 0-64.365714-52.662857-118.491429-118.491428-118.491428s-118.491429 52.662857-118.491429 118.491428 52.662857 118.491429 118.491429 118.491429z" fill="#A1A69C" /><path d="M754.834286 901.12c-70.217143 0-128.731429-57.051429-128.731429-128.731429 0-70.217143 57.051429-128.731429 128.731429-128.731428s128.731429 57.051429 128.731428 128.731428c-1.462857 71.68-58.514286 128.731429-128.731428 128.731429z m0-235.52c-58.514286 0-106.788571 48.274286-106.788572 106.788571 0 59.977143 48.274286 106.788571 106.788572 106.788572 59.977143 0 106.788571-48.274286 106.788571-106.788572s-48.274286-106.788571-106.788571-106.788571z" fill="#141515" /><path d="M754.834286 773.851429m-55.588572 0a55.588571 55.588571 0 1 0 111.177143 0 55.588571 55.588571 0 1 0-111.177143 0Z" fill="#DAD9B4" /><path d="M754.834286 839.68c-36.571429 0-65.828571-29.257143-65.828572-65.828571s29.257143-65.828571 65.828572-65.828572 65.828571 29.257143 65.828571 65.828572-29.257143 65.828571-65.828571 65.828571z m0-111.177143c-24.868571 0-45.348571 20.48-45.348572 45.348572 0 24.868571 20.48 45.348571 45.348572 45.348571 24.868571 0 45.348571-20.48 45.348571-45.348571 0-24.868571-20.48-45.348571-45.348571-45.348572z" fill="#141515" /><path d="M87.771429 573.44h64.365714c10.24 0 19.017143 8.777143 19.017143 19.017143v10.24c0 10.24-8.777143 19.017143-19.017143 19.017143H87.771429c-10.24 0-19.017143-8.777143-19.017143-19.017143v-10.24c0-10.24 8.777143-19.017143 19.017143-19.017143z" fill="#FFE638" /><path d="M152.137143 631.954286H87.771429c-16.091429 0-29.257143-13.165714-29.257143-29.257143v-10.24c0-16.091429 13.165714-29.257143 29.257143-29.257143h64.365714c16.091429 0 29.257143 13.165714 29.257143 29.257143v10.24c0 16.091429-13.165714 29.257143-29.257143 29.257143zM87.771429 583.68c-4.388571 0-8.777143 4.388571-8.777143 8.777143v10.24c0 4.388571 4.388571 8.777143 8.777143 8.777143h64.365714c4.388571 0 8.777143-4.388571 8.777143-8.777143v-10.24c0-4.388571-4.388571-8.777143-8.777143-8.777143H87.771429z" fill="#141515" /><path d="M405.211429 675.84c-5.851429 0-10.24-4.388571-10.24-10.24V488.594286c0-5.851429 4.388571-10.24 10.24-10.24s10.24 4.388571 10.24 10.24v177.005714c0 5.851429-4.388571 10.24-10.24 10.24z" fill="#141515" /><path d="M615.862857 675.84c-5.851429 0-10.24-4.388571-10.24-10.24V488.594286c0-5.851429 4.388571-10.24 10.24-10.24 5.851429 0 10.24 4.388571 10.24 10.24v177.005714c0 5.851429-4.388571 10.24-10.24 10.24z" fill="#141515" /><path d="M877.714286 634.88h64.365714c10.24 0 19.017143 8.777143 19.017143 19.017143v10.24c0 10.24-8.777143 19.017143-19.017143 19.017143H877.714286c-10.24 0-19.017143-8.777143-19.017143-19.017143v-10.24c0-11.702857 8.777143-19.017143 19.017143-19.017143z" fill="#EC748B" /><path d="M942.08 693.394286H877.714286c-16.091429 0-29.257143-13.165714-29.257143-29.257143v-10.24c0-16.091429 13.165714-29.257143 29.257143-29.257143h64.365714c16.091429 0 29.257143 13.165714 29.257143 29.257143v10.24c0 16.091429-13.165714 29.257143-29.257143 29.257143zM877.714286 645.12c-4.388571 0-8.777143 4.388571-8.777143 8.777143v10.24c0 4.388571 4.388571 8.777143 8.777143 8.777143h64.365714c4.388571 0 8.777143-4.388571 8.777143-8.777143v-10.24c0-4.388571-4.388571-8.777143-8.777143-8.777143H877.714286z" fill="#141515" /><path d="M484.205714 354.011429c-2.925714 0-5.851429-1.462857-7.314285-2.925715-4.388571-4.388571-4.388571-10.24 0-14.628571l46.811428-46.811429c4.388571-4.388571 10.24-4.388571 14.628572 0 4.388571 4.388571 4.388571 10.24 0 14.628572L491.52 351.085714c-1.462857 1.462857-4.388571 2.925714-7.314286 2.925715z" fill="#141515" /><path d="M492.982857 408.137143c-2.925714 0-5.851429-1.462857-7.314286-2.925714-4.388571-4.388571-4.388571-10.24 0-14.628572l84.845715-87.771428c4.388571-4.388571 10.24-4.388571 14.628571 0 4.388571 4.388571 4.388571 10.24 0 14.628571l-84.845714 87.771429c-2.925714 1.462857-5.851429 2.925714-7.314286 2.925714z" fill="#141515" /><path d="M611.474286 197.485714l-10.24-20.48c-24.868571-46.811429-17.554286-43.885714-99.474286-43.885714-80.457143 0-73.142857-2.925714-99.474286 43.885714-4.388571 8.777143-8.777143 14.628571-10.24 20.48h219.428572z" fill="#EDA127" /><path d="M611.474286 207.725714h-219.428572c-2.925714 0-7.314286-1.462857-8.777143-4.388571-1.462857-2.925714-1.462857-7.314286 0-10.24 1.462857-4.388571 4.388571-7.314286 7.314286-13.165714l8.777143-16.091429c20.48-38.034286 26.331429-40.96 77.531429-40.96H526.628571c52.662857 0 58.514286 2.925714 77.531429 40.96l8.777143 16.091429c2.925714 4.388571 4.388571 8.777143 7.314286 13.165714 1.462857 2.925714 1.462857 7.314286 0 10.24-1.462857 2.925714-5.851429 4.388571-8.777143 4.388571zM409.6 187.245714h185.782857l-7.314286-14.628571c-17.554286-29.257143-17.554286-29.257143-61.44-29.257143h-49.737142c-43.885714 0-43.885714 0-59.977143 30.72l-7.314286 13.165714z" fill="#141515" /><path d="M329.142857 416.914286h76.068572c7.314286 0 14.628571 5.851429 14.628571 14.628571V468.114286c0 7.314286-5.851429 14.628571-14.628571 14.628571h-76.068572c-7.314286 0-14.628571-5.851429-14.628571-14.628571v-36.571429c0-7.314286 5.851429-14.628571 14.628571-14.628571z" fill="#FAD311" /><path d="M405.211429 492.982857h-76.068572c-13.165714 0-24.868571-11.702857-24.868571-24.868571v-36.571429c0-13.165714 11.702857-24.868571 24.868571-24.868571h76.068572c13.165714 0 24.868571 11.702857 24.868571 24.868571V468.114286c0 13.165714-11.702857 24.868571-24.868571 24.868571z m-76.068572-64.365714c-2.925714 0-4.388571 1.462857-4.388571 4.388571V468.114286c0 2.925714 1.462857 4.388571 4.388571 4.388571h76.068572c2.925714 0 4.388571-1.462857 4.388571-4.388571v-36.571429c0-2.925714-1.462857-4.388571-4.388571-4.388571h-76.068572z" fill="#141515" /></svg>