<svg xmlns="http://www.w3.org/2000/svg" viewBox="0 0 405.84 814.15"><defs><style>.cls-1{fill:#f94646;}.cls-2{fill:#48f775;}.cls-3{fill:#4aa4f4;}</style></defs><g id="Layer_3_Image" data-name="Layer 3 Image"><path class="cls-1" d="M1002.58,743.57" transform="translate(-616.27 -135.33)"/><path class="cls-2" d="M1047.06,949.48" transform="translate(-616.27 -135.33)"/><path class="cls-3" d="M775.4,876.05c-15.63-1.17-21.36-62.22-20.66-77.13s1.81-11.91,5.53-16.2c.23-.69,37.37,67,67.18,100.21C828.13,880,775.67,871.86,775.4,876.05Z" transform="translate(-616.27 -135.33)"/><path class="cls-3" d="M900.26,892.28s60.87.05,104-11.88c22.36-9.86-1.83-40.12-3.67-41.27s-36-23.39-36-74.52,4.36-95.39,4.36-95.39,7.11-59.62-4.13-86-12.44-49.6-59.45-80.78c.23-.23-52.35,14.89-82.62,5s-10.66-9.74-27.17-10.2-28.78,3-38.73-7.14c-2.52-4.59-1.84-10.32-2.52-10.55s-19.38-19.16-19.38-19.16c-.89,17.53,8.76,30.74,22.78,42.15,9.75,10.16,46.62,18.62,100.43,26L917,695.29l3.81,7,12.84,25.19s-.55,22.3-7.66,25.05-17.79,2.27-18.48,1.58-5.66-6.88-6-10.55c-.08-.91-9.79-3.74-8.72-13.07s6.65-15.82,5.89-19-29.05-46.7-38.68-55.95-24.65-19.39-24.65-19.39,17.38,31.17,13.76,42.19c-3.37,10.26-4.22,19.21-7.81,30.22-13,39.89.92,135.53,27.91,123.14Z" transform="translate(-616.27 -135.33)"/><path class="cls-1" d="M700.88,491.73c1.9-1.63,18-11.09,19.83-10.44-8.54,10.32-88.05,97.46-44.48,200.64-11.94,143.59,22.93,198,86.67,267.55,10.78-2.71,25.58-33.71,13.53-74.25-20.64-39.9-22.76-88.75-17.2-91.49,5,2.44,54.88,109,131.62,163.26,10.78-4.72,30.73-29.81-12.84-100.89S843.61,781,837.19,743.38c.46-41.27,14.22-57.78,11.93-65.12,4.58-14.67-13.76-42.19-13.76-42.19s45.87,47.17,59.16,72.61c4.48,8.59-9.4,19.11-1.15,32.18,1.79,2.82,7.11.92,7.11.92s1,9.05,6.88,11.46c7.87,3.22,21.29-.26,22-3.44,6.42-14.44,9.17-22-9.17-48.15-10.9-15.54-17.43-84.69-62.06-173-24.63-7.28-50.12-9.14-77.81-15.67-31.61-7.45-47.47-35.94-45.4-52.51.19-1.55,13.31,21.44,17.42,18.57,1.74-1.21-6,16.74,14.68,19.72.74,2.06,28-1.84,29.35.69,1.61,3,77.13,35.88,144.92-17.89,3.2-2.54,8-9,10.39-15,2-5.05,1.38-10.06,5.43-10.47,42.89-4.3,40-16.47,33.7-52.05-1.56-8.8,23.85-27.67,29.66-61,3-17,4.63-32.72-20.48-57.48-.18-.18-.57-.29-.54-.54,1.94-16.42,16.53-60.77-28-93.29-36.79-26.86-105.63-27.31-116.3-30.51-9.74-2.91-16-3-28.95-14.46-4.19-3.74-5.05-11.28-5.05-11.28-7.88-2.12-12.25,20.55-8.71,23.66,3.13,2.75-11.47-10.32-12.84-15.14-8.85,3.15-2.72,25.7-3.67,26.6-6.09,5.78-41.27-23.39-33.48-25.45-37.68,31.25-5.37,82.07,4.36,80.25-59.08,48.54-65.48,140.87-61.53,140.26,0,0-27.77-44-30-53-1.87-7.75,3.51-5.51,5.5-19.11,2.29-15.63,1-28.11-24.15-46.78-8.91-6.61-16.61-9.14-23.54-2.45-43.72,42.19,11.46,79.65,11.46,79.65C650,349.7,697.94,472.1,700.88,491.73Z" transform="translate(-616.27 -135.33)"/></g></svg>