<?xml version="1.0" encoding="utf-8"?>
<!-- Uploaded to: SVG Repo, www.svgrepo.com, Generator: SVG Repo Mixer Tools -->
<svg width="800px" height="800px" viewBox="0 0 1024 1024" class="icon"  version="1.1" xmlns="http://www.w3.org/2000/svg"><path d="M915.469179 753.823284h32.152047" fill="#FEDEBB" /><path d="M947.621226 762.735182H915.469179a8.911898 8.911898 0 0 1 0-17.823796h32.152047a8.911898 8.911898 0 0 1 0 17.823796z" fill="" /><path d="M800.072184 753.823284h62.543011" fill="#FEDEBB" /><path d="M862.615195 762.735182h-62.543011a8.911898 8.911898 0 0 1 0-17.823796h62.543011a8.911898 8.911898 0 0 1 0 17.823796z" fill="" /><path d="M182.57104 753.823284h554.078615" fill="#FEDEBB" /><path d="M736.648631 762.735182H182.57104a8.911898 8.911898 0 0 1 0-17.823796h554.078615a8.911898 8.911898 0 1 1-0.001024 17.823796z" fill="" /><path d="M91.399171 753.823284h32.593342" fill="#FEDEBB" /><path d="M123.992513 762.735182h-32.593342a8.911898 8.911898 0 0 1 0-17.823796h32.593342a8.911898 8.911898 0 0 1 0 17.823796z" fill="" /><path d="M85.2876 394.744653c0 5.835122-4.734446 10.571616-10.570592 10.571616-5.84229 0-10.570592-4.736494-10.570592-10.571616 0-5.83717 4.727279-10.571616 10.570592-10.571616 5.836146 0 10.570592 4.734446 10.570592 10.571616z" fill="#FD5C1E" /><path d="M783.562033 257.450846m-6.418737 0a6.418737 6.418737 0 1 0 12.837474 0 6.418737 6.418737 0 1 0-12.837474 0Z" fill="#FDD72C" /><path d="M317.601037 319.194202a3.71056 3.71056 0 0 1-3.708513 3.713632 3.709537 3.709537 0 0 1-3.713632-3.713632 3.711584 3.711584 0 1 1 7.422145 0z" fill="#FDD72C" /><path d="M225.490265 317.177148c-9.512919 0-17.251444-7.737501-17.251444-17.247348 0-9.513942 7.738525-17.251444 17.251444-17.251444s17.251444 7.737501 17.251444 17.251444c0 9.508823-7.738525 17.247348-17.251444 17.247348z m0-30.538404c-7.327947 0-13.291055 5.962084-13.291055 13.291056 0 7.325899 5.962084 13.28696 13.291055 13.28696s13.291055-5.96106 13.291055-13.28696c0-7.327947-5.963108-13.291055-13.291055-13.291056z" fill="#FD5C1E" /><path d="M844.698226 376.464204c-9.356264 0-16.968851-7.615659-16.968852-16.977043 0-9.358312 7.612587-16.970899 16.968852-16.970899s16.968851 7.612587 16.968851 16.970899c0.001024 9.361384-7.611564 16.977043-16.968851 16.977043z m0-29.986529c-7.172317 0-13.008463 5.83717-13.008463 13.01051 0 7.177436 5.836146 13.01563 13.008463 13.015631s13.008463-5.839218 13.008463-13.015631c0-7.174364-5.836146-13.010511-13.008463-13.01051zM728.566081 203.013934a4.144688 4.144688 0 0 1-4.146736-4.146735v-4.146736a4.520454 4.520454 0 0 0-4.520454-4.523525 4.525573 4.525573 0 0 0-4.525573 4.523525v4.146736a4.146736 4.146736 0 0 1-4.149807 4.146735h-4.146736a4.524549 4.524549 0 1 0 0 9.049099h4.146736a4.146736 4.146736 0 0 1 4.149807 4.146736v4.146735a4.522501 4.522501 0 1 0 9.046027 0v-4.146735a4.144688 4.144688 0 0 1 4.146736-4.146736h4.146735a4.525573 4.525573 0 0 0 0-9.049099h-4.146735z" fill="#2BA9FC" /><path d="M875.680996 451.788376a3.791447 3.791447 0 0 1-3.791448-3.792472v-3.798614a4.136497 4.136497 0 0 0-4.14264-4.134449 4.136497 4.136497 0 0 0-4.135472 4.134449v3.798614a3.793495 3.793495 0 0 1-3.792472 3.792472h-3.791447a4.138544 4.138544 0 1 0 0 8.279136h3.791447a3.792471 3.792471 0 0 1 3.792472 3.792472v3.790423a4.136497 4.136497 0 0 0 4.135472 4.136497 4.136497 4.136497 0 0 0 4.14264-4.136497v-3.790423a3.792471 3.792471 0 0 1 3.791448-3.792472h3.795543a4.139568 4.139568 0 0 0 0-8.279136h-3.795543z" fill="#FD5C1E" /><path d="M152.600893 320.594877a5.078471 5.078471 0 0 1-5.082567-5.078471v-5.082567a5.541267 5.541267 0 1 0-11.083559 0v5.082567a5.077447 5.077447 0 0 1-5.082566 5.078471h-5.082567a5.542291 5.542291 0 0 0-5.540244 5.546387 5.53922 5.53922 0 0 0 5.540244 5.541268h5.082567a5.078471 5.078471 0 0 1 5.082566 5.078471v5.086662a5.538196 5.538196 0 0 0 5.540244 5.535124 5.540243 5.540243 0 0 0 5.543315-5.535124v-5.086662a5.077447 5.077447 0 0 1 5.082567-5.078471h5.078471a5.537172 5.537172 0 0 0 5.540243-5.541268 5.53922 5.53922 0 0 0-5.540243-5.546387h-5.078471z" fill="#FED62C" /><path d="M303.919881 191.568944a3.168925 3.168925 0 0 0-3.168925 3.174045l-0.003072 13.928936a3.176092 3.176092 0 0 0 3.171997 3.171996 3.171997 3.171997 0 0 0 3.165853-3.171996v-13.928936c0-1.752892-1.418081-3.174045-3.165853-3.174045zM303.912714 239.712032a3.166877 3.166877 0 0 0-3.16483 3.161758l0.003072 13.938151a3.163806 3.163806 0 0 0 3.168925 3.165853 3.163806 3.163806 0 0 0 3.165853-3.165853v-13.938151a3.168925 3.168925 0 0 0-3.17302-3.161758zM289.584463 215.923081a3.168925 3.168925 0 0 0 4.480522-4.479499l-9.854897-9.851824a3.15971 3.15971 0 0 0-4.480522 0 3.16483 3.16483 0 0 0 0 4.47745l9.854897 9.853873zM318.248132 235.62673a3.160734 3.160734 0 0 0-4.472331 0 3.168925 3.168925 0 0 0 0 4.483594l9.850801 9.85592a3.166877 3.166877 0 1 0 4.47745-4.481546l-9.85592-9.857968zM289.980706 225.774905a3.163806 3.163806 0 0 0-3.168925-3.165853h-13.928936a3.166877 3.166877 0 1 0 0 6.335802h13.928936a3.16483 3.16483 0 0 0 3.168925-3.169949zM334.953845 222.609052h-13.939175a3.160734 3.160734 0 0 0-3.158686 3.165853 3.15971 3.15971 0 0 0 3.16483 3.169949h13.933031a3.168925 3.168925 0 1 0 0-6.335802zM289.584463 235.62673l-9.854897 9.857968a3.174045 3.174045 0 0 0 0 4.481546 3.173021 3.173021 0 0 0 4.480522 0l9.854897-9.85592a3.174045 3.174045 0 0 0 0-4.483594 3.173021 3.173021 0 0 0-4.480522 0zM318.248132 215.923081l9.85592-9.853873a3.161758 3.161758 0 0 0 0-4.47745 3.155615 3.155615 0 0 0-4.47745 0l-9.850801 9.851824a3.163806 3.163806 0 0 0 0 4.479499 3.153567 3.153567 0 0 0 4.472331 0z" fill="#FED62C" /><path d="M796.528517 521.440223c-31.752732-16.516294-55.495608-44.828771-60.522886-52.191531 13.478426-21.672581 17.273969-39.80559 17.27397-66.081559 0-85.445278-80.796839-154.71112-180.46798-154.71112-99.667045 0-180.464908 69.266866-180.464908 154.71112 0 85.454493 80.797863 154.719311 180.464908 154.719312 50.028061 0 85.149375-9.372646 117.839986-37.56021 23.796119 15.552818 77.5716 17.328235 105.87691 1.113988z" fill="#FDD72C" /><path d="M729.14048 414.556834c0 26.194058-3.794519 44.271778-17.273969 65.874734 4.790759 6.991089 26.564705 32.895388 56.050554 49.578575 10.71496-1.810229 20.67634-4.879837 28.610428-9.408482-28.541827-14.803334-50.615771-39.102181-58.434159-49.199738-1.189755-1.53378-1.245045-4.170285-0.253924-5.848433 11.991745-20.301598 15.439167-37.899115 15.439167-62.859392 0-85.185211-80.796839-154.238085-180.46798-154.238085-37.69229 0-72.676404 9.888684-101.621642 26.779721 23.47769-9.55797 49.745469-14.916985 77.483546-14.916986 99.667045 0 180.46798 69.053898 180.467979 154.238086z" fill="#F47A22" /><path d="M665.738429 273.977379c-0.984978 0-1.983266-0.245732-2.903738-0.763819a204.594813 204.594813 0 0 0-21.085895-10.28288 5.939559 5.939559 0 0 1-3.183259-7.774362 5.936487 5.936487 0 0 1 7.776409-3.183259 216.701233 216.701233 0 0 1 22.311485 10.882877 5.940583 5.940583 0 0 1-2.915002 11.121443zM554.698066 574.000352c-27.054122 0-53.342378-4.338202-78.134737-12.89174a5.940583 5.940583 0 0 1-3.67882-7.554226 5.933415 5.933415 0 0 1 7.554226-3.67882c23.544243 8.122482 48.527045 12.242597 74.259331 12.242597 53.906538 0 88.752428-9.906091 120.275809-34.193675 4.718064-3.631721 12.224167-4.351513 17.841202-1.721151 24.220007 11.362055 66.785992 12.331675 94.212808 2.639577-27.869135-16.64428-47.687459-38.790919-53.294255-45.43184-4.023869-4.769258-4.578815-12.654199-1.293167-18.345977 10.56752-18.258947 14.495145-34.816197 14.495144-61.099333 0-36.291615-15.338826-71.755931-43.190554-99.859536a5.940583 5.940583 0 1 1 8.439886-8.362071c30.071512 30.342842 46.632857 68.777449 46.632857 108.221607 0 23.55653-2.736845 43.973827-16.090357 67.046059-0.81706 1.413986-0.645048 3.868239 0.086006 4.734445 5.559697 6.58563 25.903275 29.305646 54.235206 45.166654 3.683939 2.062105 5.773689 5.404067 5.588366 8.940566-0.184299 3.516022-2.46654 6.465836-6.260035 8.091766-30.159566 12.932696-79.894796 12.482186-108.607612-0.983954-1.614667-0.756651-4.311581-0.5744-5.545363 0.374742-33.798455 26.043547-70.745357 36.66431-127.525941 36.66431zM378.478186 485.051338a5.933415 5.933415 0 0 1-5.047754-2.798278c-14.950774-23.985538-22.85312-51.056042-22.853121-78.287296 0-93.759227 91.568112-170.036636 204.120755-170.036636 15.844625 0 31.63908 1.518422 46.94207 4.510215a5.943654 5.943654 0 0 1 4.691443 6.971635 5.943654 5.943654 0 0 1-6.971635 4.690419c-14.555554-2.846401-29.582095-4.29008-44.661878-4.29008-106.0008 0-192.238565 70.947062-192.238565 158.154447 0 25.362663 7.083239 49.58779 21.054153 72.001664a5.941607 5.941607 0 0 1-5.035468 9.08391zM523.511543 411.185179c0 9.118723-7.391428 16.509127-16.510151 16.509127-9.117699 0-16.510151-7.390404-16.510151-16.509127 0-9.111556 7.391428-16.510151 16.510151-16.510151 9.119747 0 16.510151 7.399619 16.510151 16.510151z" fill="" /><path d="M647.892108 411.185179c0 9.076743-7.359688 16.441551-16.440527 16.441551s-16.441551-7.364807-16.44155-16.441551c0-9.078791 7.359688-16.440527 16.44155-16.440526 9.080839 0 16.440527 7.362759 16.440527 16.440526zM599.51967 434.371062c0.205801-1.864495-1.332075-3.387013-3.203737-3.387012h-54.233158c-1.868591 0-3.406466 1.521494-3.203737 3.387012 1.682244 15.257939 14.620059 27.120674 30.32134 27.120675 15.702305 0 28.637049-11.863759 30.319292-27.120675z" fill="" /><path d="M582.153551 452.813285c0 3.661414-6.100309 6.635801-13.625866 6.635801-7.529653 0-13.633033-2.974387-13.633033-6.635801s6.10338-6.633753 13.633033-6.633753c7.524533 0 13.625866 2.972339 13.625866 6.633753z" fill="#FD631F" /><path d="M234.237317 566.310973c19.08727-9.895852 33.360232-26.85344 36.377622-31.257171-8.096885-12.97877-10.378102-23.839122-10.378102-39.577263 0-51.173789 48.565953-92.666741 108.482698-92.666742 59.910602 0 108.476555 41.491929 108.476555 92.666742 0 51.179932-48.565953 92.664694-108.476555 92.664693-30.076631 0-51.187099-5.617035-70.835458-22.496808-14.307774 9.317356-46.630809 10.377078-63.64676 0.666549z" fill="#48B9F8" /><path d="M387.885645 496.659126c0 5.821812 4.718064 10.536804 10.533732 10.536804 5.81874 0 10.53578-4.714992 10.53578-10.536804 0-5.815669-4.71704-10.530661-10.53578-10.53066-5.815669 0-10.533732 4.714992-10.533732 10.53066zM322.615003 496.659126c0 5.794167 4.696562 10.493801 10.490729 10.493801 5.791095 0 10.487657-4.699634 10.487658-10.493801 0-5.788024-4.696562-10.487657-10.487658-10.487657-5.794167 0-10.490729 4.699634-10.490729 10.487657z" fill="" /><path d="M368.719535 402.809797c-4.782568 0-9.476059 0.295903-14.087638 0.806822 53.2533 5.904747 94.394036 44.766314 94.394036 91.85992 0 47.607596-42.038684 86.808069-96.130545 92.045243 5.002704 0.419793 10.257283 0.618427 15.824147 0.618426 59.910602 0 108.476555-41.484762 108.476555-92.664693 0.001024-51.173789-48.564929-92.665717-108.476555-92.665718z" fill="#318AE4" /><path d="M354.943158 515.72899a18.020382 18.020382 0 0 0-0.200681 2.670293c0 8.40917 5.870958 15.223127 13.110851 15.223127 7.238869 0 13.109828-6.813957 13.109828-15.223127 0-0.90921-0.0686-1.804086-0.202729-2.670293-0.158702-1.046411-1.24914-1.871662-2.304766-1.871662h-21.203641c-1.05665-0.001024-2.151183 0.825252-2.308862 1.871662z" fill="" /><path d="M361.910698 527.449406a5.94263 4.782568 0 1 0 11.885261 0 5.94263 4.782568 0 1 0-11.885261 0Z" fill="#46B9FA" /><path d="M265.839538 430.78132a4.952533 4.952533 0 0 1-3.397252-8.554561 117.019854 117.019854 0 0 1 16.492745-12.926553 4.951509 4.951509 0 1 1 5.395876 8.301663c-5.436831 3.535476-10.516326 7.515318-15.096165 11.832018a4.939223 4.939223 0 0 1-3.395204 1.347433z" fill="" /><path d="M354.254084 592.491721c-34.315517 0-56.662838-6.513958-77.132354-22.484522-0.056314-0.002048-0.44539-0.017406-0.607164 0.046075-17.668165 8.648759-48.349913 8.935447-66.987697 0.620475-2.552546-1.135489-4.144688-3.305102-4.25322-5.802359-0.11058-2.530021 1.323884-4.869599 3.835475-6.257987 17.389668-9.579471 29.914858-23.873934 32.618938-27.103268a0.91433 0.91433 0 0 0-0.028668-0.33993c-8.343642-14.139856-10.059673-26.646616-10.059674-41.055754 0-14.340538 3.478138-28.215208 10.339194-41.239029a4.959701 4.959701 0 0 1 6.688019-2.073368 4.950486 4.950486 0 0 1 2.073368 6.688019c-6.10338 11.586286-9.198586 23.908746-9.198586 36.624378 0 15.528245 2.363127 25.310445 8.721456 36.092982 2.101013 3.572336 1.777465 8.387669-0.768938 11.453181-3.215 3.870287-14.097877 16.209129-29.799159 26.182796 16.1436 4.674037 39.365319 3.731038 52.475147-2.688723 3.498616-1.723199 8.044667-1.292143 11.041579 1.04641 18.564065 14.481834 39.145184 20.388628 71.042284 20.388629 62.149839 0 112.712368-41.484762 112.712368-92.475275 0-50.995632-50.562529-92.48449-112.712368-92.48449-16.163054 0-31.769114 2.752204-46.38303 8.182892a4.951509 4.951509 0 0 1-3.448445-9.282544c15.721759-5.840242 32.487881-8.801318 49.831475-8.801319 67.61022 0 122.614363 45.930472 122.614363 102.386485 0.001024 56.44987-55.004144 102.376246-122.614363 102.376246z" fill="" /></svg>