<?xml version="1.0" encoding="utf-8"?>
<!-- Generator: Adobe Illustrator 26.0.1, SVG Export Plug-In . SVG Version: 6.00 Build 0)  -->
<svg version="1.1" id="Layer_1" xmlns="http://www.w3.org/2000/svg" xmlns:xlink="http://www.w3.org/1999/xlink" x="0px" y="0px"
	 viewBox="0 0 1190.6 841.9" style="enable-background:new 0 0 1190.6 841.9;" xml:space="preserve">
<style type="text/css">
	.st0{fill:url(#SVGID_1_);stroke:url(#SVGID_00000165944290243627032120000015326773006653531783_);}
	.st1{fill:#FFFFBC;}
</style>
<linearGradient id="SVGID_1_" gradientUnits="userSpaceOnUse" x1="-194.8891" y1="504.9478" x2="1242.2637" y2="504.9478" gradientTransform="matrix(0.7071 0.7071 -0.7071 0.7071 582.0248 -309.2252)">
	<stop  offset="2.131116e-07" style="stop-color:#F0C9FF"/>
	<stop  offset="1" style="stop-color:#ACCBFE"/>
</linearGradient>
<linearGradient id="SVGID_00000121267200322820518540000003370068777666880394_" gradientUnits="userSpaceOnUse" x1="523.6873" y1="1224.2313" x2="523.6873" y2="-214.3357" gradientTransform="matrix(0.7071 0.7071 -0.7071 0.7071 582.0248 -309.2252)">
	<stop  offset="2.131116e-07" style="stop-color:#F0C9FF"/>
	<stop  offset="1" style="stop-color:#ACCBFE"/>
</linearGradient>
<rect y="-2.8" style="fill:url(#SVGID_1_);stroke:url(#SVGID_00000121267200322820518540000003370068777666880394_);" width="1190.6" height="841.9"/>
<path class="st1" d="M173.6,156.5c0,0-1.4,12.2-13.8,15.8c0,0-8.3,3.7,0,7.3s16.1,8.3,16.7,19.3c0.7,11,6.9,9.6,7.6,0
	c0.7-9.6,10.1-16.5,13.1-17.4c3-0.9,10.5-5,1.6-8.3s-11.3-3.8-15.6-19.5C178.6,137,172.4,153.6,173.6,156.5z"/>
<path class="st1" d="M308.8,368c0,0-1.4,12.2-13.8,15.8c0,0-8.3,3.7,0,7.3c8.3,3.7,16.1,8.3,16.7,19.3s6.9,9.6,7.6,0
	c0.7-9.6,10.1-16.5,13.1-17.4c3-0.9,10.5-5,1.6-8.3c-8.9-3.2-11.3-3.8-15.6-19.5C313.8,348.5,307.6,365,308.8,368z"/>
<path class="st1" d="M991.2,575.1c0,0-0.7,5.9-6.7,7.7c0,0-4,1.8,0,3.5c4,1.8,7.8,4,8.1,9.3c0.3,5.3,3.3,4.7,3.7,0
	c0.3-4.7,4.9-8,6.3-8.4c1.4-0.4,5.1-2.4,0.8-4c-4.3-1.6-5.5-1.8-7.5-9.4C993.6,565.7,990.6,573.7,991.2,575.1z"/>
<path class="st1" d="M945.3,660.3c0,0-1.3,11.2-12.7,14.6c0,0-7.6,3.4,0,6.8c7.6,3.4,14.8,7.6,15.5,17.8c0.6,10.2,6.4,8.9,7,0
	c0.6-8.9,9.3-15.3,12.1-16.1c2.8-0.8,9.8-4.7,1.5-7.6c-8.3-3-10.4-3.5-14.4-18C950,642.3,944.3,657.6,945.3,660.3z"/>
<path class="st1" d="M583.3,334.3c0,0-0.9,8-9,10.4c0,0-5.4,2.4,0,4.8c5.4,2.4,10.5,5.4,11,12.6c0.5,7.2,4.5,6.3,5,0
	c0.5-6.3,6.6-10.8,8.6-11.4c2-0.6,6.9-3.3,1.1-5.4c-5.9-2.1-7.4-2.5-10.2-12.8C586.6,321.5,582.5,332.4,583.3,334.3z"/>
<path class="st1" d="M634.7,286.1c0,0-0.8,7.3-8.2,9.4c0,0-4.9,2.2,0,4.4c4.9,2.2,9.6,4.9,10,11.5s4.1,5.7,4.5,0
	c0.4-5.7,6-9.9,7.8-10.4c1.8-0.5,6.3-3,1-4.9c-5.3-1.9-6.7-2.3-9.3-11.6C637.7,274.5,634,284.4,634.7,286.1z"/>
<path class="st1" d="M292.3,666.7c0,0-0.8,7.4-8.4,9.6c0,0-5,2.2,0,4.5c5,2.2,9.8,5,10.2,11.7c0.4,6.7,4.2,5.9,4.6,0
	c0.4-5.9,6.1-10.1,8-10.6c1.8-0.6,6.4-3.1,1-5c-5.4-2-6.9-2.3-9.5-11.9C295.4,654.8,291.6,664.8,292.3,666.7z"/>
<path class="st1" d="M1039.6,126.6c0,0-0.6,5.4-6.1,7c0,0-3.7,1.6,0,3.3c3.7,1.6,7.1,3.7,7.4,8.6c0.3,4.9,3.1,4.3,3.4,0
	c0.3-4.3,4.5-7.3,5.8-7.8c1.3-0.4,4.7-2.2,0.7-3.7s-5-1.7-6.9-8.7C1041.9,117.9,1039.1,125.3,1039.6,126.6z"/>
<path class="st1" d="M267.2,335.5c0,0-0.8,7.3-8.2,9.4c0,0-4.9,2.2,0,4.4c4.9,2.2,9.6,4.9,10,11.5s4.1,5.7,4.5,0
	c0.4-5.7,6-9.9,7.8-10.4s6.3-3,1-4.9s-6.7-2.3-9.3-11.6C270.2,323.9,266.5,333.7,267.2,335.5z"/>
<path class="st1" d="M1060.5,176.3c0,0-0.6,5.4-6.1,7c0,0-3.7,1.6,0,3.3c3.7,1.6,7.1,3.7,7.4,8.6c0.3,4.9,3.1,4.3,3.4,0
	c0.3-4.3,4.5-7.3,5.8-7.8c1.3-0.4,4.7-2.2,0.7-3.7s-5-1.7-6.9-8.7C1062.7,167.6,1060,174.9,1060.5,176.3z"/>
<path class="st1" d="M1004.1,197.8c0,0-1,8.6-9.8,11.2c0,0-5.9,2.6,0,5.2c5.9,2.6,11.4,5.9,11.9,13.7c0.5,7.8,4.9,6.8,5.4,0
	s7.2-11.7,9.3-12.4s7.5-3.6,1.1-5.9c-6.3-2.3-8-2.7-11.1-13.8C1007.7,183.9,1003.3,195.7,1004.1,197.8z"/>
<path class="st1" d="M1010.8,636c0,0-0.6,5.5-6.2,7.1c0,0-3.7,1.7,0,3.3c3.7,1.7,7.2,3.7,7.5,8.7c0.3,5,3.1,4.3,3.4,0
	c0.3-4.3,4.6-7.4,5.9-7.9c1.3-0.4,4.8-2.3,0.7-3.7c-4-1.4-5.1-1.7-7-8.8C1013.1,627.2,1010.3,634.7,1010.8,636z"/>
<path class="st1" d="M264.6,711.3c0,0-0.6,5.4-6.2,7.1c0,0-3.7,1.6,0,3.3c3.7,1.6,7.2,3.7,7.5,8.6c0.3,4.9,3.1,4.3,3.4,0
	s4.5-7.4,5.8-7.8c1.3-0.4,4.7-2.3,0.7-3.7c-4-1.4-5.1-1.7-7-8.7C266.8,702.5,264.1,709.9,264.6,711.3z"/>
<path class="st1" d="M325.4,751.6c0,0-0.8,7.4-8.4,9.6c0,0-5,2.2,0,4.5s9.8,5,10.2,11.7c0.4,6.7,4.2,5.9,4.6,0
	c0.4-5.9,6.1-10.1,8-10.6c1.8-0.6,6.4-3.1,1-5c-5.4-2-6.9-2.3-9.5-11.9C328.5,739.7,324.7,749.7,325.4,751.6z"/>
<path class="st1" d="M224.5,116.5c0,0-0.8,7.3-8.2,9.4c0,0-4.9,2.2,0,4.4c4.9,2.2,9.6,4.9,10,11.5c0.4,6.6,4.1,5.7,4.5,0
	c0.4-5.7,6-9.9,7.8-10.4c1.8-0.5,6.3-3,1-4.9c-5.3-1.9-6.7-2.3-9.3-11.6C227.6,104.8,223.9,114.7,224.5,116.5z"/>
<path class="st1" d="M634.7,355.3c0,0-0.8,7.3-8.2,9.4c0,0-4.9,2.2,0,4.4c4.9,2.2,9.6,4.9,10,11.5s4.1,5.7,4.5,0
	c0.4-5.7,6-9.9,7.8-10.4c1.8-0.5,6.3-3,1-4.9c-5.3-1.9-6.7-2.3-9.3-11.6C637.7,343.7,634,353.5,634.7,355.3z"/>
<path class="st1" d="M185.5,80.5c0,0-0.8,7.3-8.2,9.4c0,0-4.9,2.2,0,4.4c4.9,2.2,9.6,4.9,10,11.5c0.4,6.6,4.1,5.7,4.5,0
	c0.4-5.7,6-9.9,7.8-10.4c1.8-0.5,6.3-3,1-4.9c-5.3-1.9-6.7-2.3-9.3-11.6C188.5,68.8,184.8,78.7,185.5,80.5z"/>
<circle class="st1" cx="499.2" cy="610.6" r="7"/>
</svg>
