<?xml version="1.0" encoding="utf-8"?>
<!-- Generator: Adobe Illustrator 26.0.1, SVG Export Plug-In . SVG Version: 6.00 Build 0)  -->
<svg version="1.1" id="Layer_1" xmlns="http://www.w3.org/2000/svg" xmlns:xlink="http://www.w3.org/1999/xlink" x="0px" y="0px"
	 viewBox="0 0 1190.6 841.9" style="enable-background:new 0 0 1190.6 841.9;" xml:space="preserve">
<style type="text/css">
	.st0{fill:#BF869D;}
	.st1{fill:#BBCDFC;}
	.st2{fill:#B7CCFD;}
	.st3{fill:#FCB7B9;}
	.st4{fill:#FCBEBD;}
	.st5{fill:#FCB4B7;}
	.st6{fill:#FBE3BE;}
	.st7{fill:#FCCCB7;}
</style>
<path class="st0" d="M167.1,334.2c-4.5-41.2,4-91.2,40-116.3c22.4-4.9,27.7-22.2,33.6-40.1c22.8-62.2,77.1-106.3,135.5-133.3
	c178.5-98.2,419.5,45.6,401.2,251.7c-0.7,18.3,5,28.5,21.9,33.2c41.2,31.8,70.5,76.3,94.3,122.1c2.4,13.2,8.7,25.7,10.1,38.8
	c1.5,12,0.6,25,4.9,35.8c6,15,16,28.4,24.2,42.5l0.5-0.2c1.5,1.5,2.9,2.9,4.4,4.4l-0.3,0.1c23.6,27.8,64.8,59.4,39.4,99.2l0.1-0.1
	c-4.9,5.7-9.7,11.4-14.6,17.2c-7.5,2.4-12.7,10.3-14.8,17.7c24.6,19.8,51,37.8,72.4,61.3l-0.1-0.1c4.5,20.1,3.6,38.5-16.6,50.4
	c-54.4,34.3-124.5,8.8-172.6-27.1c-56.1-66.5-142.6-33.1-220-41.1c-27,56.2-72.7-14.6-115.1,12.7c-15.5,8.5-32.6,10.2-46.7-6.6
	c-3.7-4.4-12.7-4.2-19.3-6.2c-49.7-9.6-61.9-35.4-21.7-71.8c-52.2-34.9-93.5-83.6-102.7-144.6c-0.4-28.9-11-59.1,1.1-86.6
	c-0.9-3.4-0.7-8.6-2.8-9.8c-14.6-8.5-29.4-17-44.8-23.7c-3.2-1.4-9.5,4.6-14.4,7.2c-16.2,5.7-31,4.4-43-9.2c-2.5-2.7-5-5.6-7.5-8.5
	c-8.4-16.8-19.2-32.5-22.9-51.2 M621.7,69.5L621.7,69.5 M613.5,64.9C507.9,7.2,361.5,40.7,292,139.6c-14.5,18.7-32.5,37.1-30.7,56.7
	c102,27.2,136.1,127.9,85,219.3c-34.2,62.7-25.4,133.5,19,187.9v0.1c50.9,77.8,114.1,71.9,195.2,94.1c10.5,2,22.9,1.3,31.3,6.6
	c44.5,28.4,92.6,27,141.9,21.1c23.1-2.7,45.8-7.1,66.1,11.7c50.1,38.9,105.5,80.3,173,70.2c24.1-3.3,31.9-13.5,16.1-31.2
	c-20.1-22.5-45-40.8-68.7-59.9c-4.3-3.4-12.4-3.8-18.5-2.9c-147.2,22.2-334.4-57.7-333.3-227.2c-0.4-35.2,16.3-62.6,39.9-86.7
	c7.5,2.5,16.5,2,21.7,8.6c-1.6,4.3-3.2,8.5-4.8,12.8l0-0.2c-4.7,2.9-10.6,5-14,9.1c-54.4,73.1,7.6,167.6,66.6,216
	c42.8,31,94.3,40.2,146.3,44.7c45.8,15.2,96.4,7.5,128.2-30.9c9.5-10.8,12.7-23.5-5.9-30.3c-11.4-13.7-20.7-30.3-34.7-40.3
	c-44.7-32.3-12.9-124-86.3-194.1l0,0c-2.9-4.3-5.9-8.6-8.8-12.9l0,0c-7.3-7.2-14.6-14.3-21.9-21.5c-2.9-1.6-5.7-3.1-8.6-4.6l0.3,0.1
	c-2.9-1.5-5.9-2.9-8.9-4.4l0.2,0.1c-27.6-9.4-27.2-28.7-24.1-54c4.1-47.3-14.5-93.6-32.8-136.6c-6.9-8.7-13.4-17.9-20.8-26.2
	 M192.2,310.7C190.5,311,193.9,310.4,192.2,310.7c24.9,158.3,38,48.7,139.2,18.5c5.6-1.7,12.9-14.2,11.4-19.5
	c-5.2-18.7-11-38.5-21.8-54.3c-20.2-29.4-68.2-44.4-97.6-16.3C203.8,258,185.7,279.3,192.2,310.7z M266.8,386.7
	c22.5,21.8,34.3,25.9,48.4,20.2c14.3-5.8,33.4-35.1,31.6-50.3c-0.3-2.6-7.8-7.2-9.8-6.2C314.2,361.5,292,373.5,266.8,386.7z
	 M481.6,726.2c30.3,7.1,56.7,14,83.4,19.1c5.6,1.1,12.5-4,18.8-6.3c-3.6-5.1-6.2-13.4-10.8-14.7c-19.2-5.3-39.1-11.9-58.3-10.9
	C504.8,714,481.6,706.2,481.6,726.2z M461.9,705.1c-17.2-18.4-42.3-7.2-51.6,9.4C424.7,737.1,450.1,721.3,461.9,705.1z"/>
<path class="st1" d="M306.4,447.2c-1.9,5.7-3.8,11.4-5.6,17.1C302.6,458.6,304.5,453,306.4,447.2z"/>
<path class="st1" d="M305.6,536.5c-0.1,2.1-0.2,4.3-0.3,6.3C305.4,540.8,305.5,538.7,305.6,536.5z"/>
<path class="st1" d="M807.7,335c-2.6-1.7-5.2-3.5-7.9-5.2C802.4,331.6,805.1,333.3,807.7,335z"/>
<path class="st1" d="M962.4,689.4c4.9-5.7,9.7-11.4,14.6-17.2C972.1,678,967.2,683.7,962.4,689.4z"/>
<path class="st2" d="M903.6,485.9c-1.4-4.3-2.9-8.6-4.3-12.9C900.8,477.4,902.2,481.7,903.6,485.9z"/>
<path class="st2" d="M1005.2,517.6c-1.1,0.1-2.3,0.3-3.4,0.4C1001.6,513.2,1004.1,513,1005.2,517.6z"/>
<path class="st1" d="M950.9,698.4c2.9-2.7,5.9-5.5,8.8-8.2C956.7,693,953.8,695.7,950.9,698.4z"/>
<path class="st2" d="M937.8,573.1c-1.5-1.5-2.9-2.9-4.4-4.4C934.9,570.1,936.4,571.6,937.8,573.1z"/>
<path class="st3" d="M568.7,486.1c-1,169.4,186.2,249.3,333.3,227.2c6-0.8,14.2-0.5,18.5,2.9c23.6,19.1,48.6,37.4,68.7,59.9
	c15.8,17.7,8,28-16.1,31.2c-67.6,10.1-123-31.2-173-70.1c-44.5-38.1-130.4,21.1-208-32.9c-8.4-5.4-20.8-4.3-31.3-6.3
	c-35.5-7.1-69.2-21-104.5-25c-30.6-6.2-53.3-24.8-73.4-47.3c0-9.5,0-18.9,0-30c-8.5,3.9-12.9,5.8-17.3,7.9
	c-11-34.9-10.1-42.8,29.5-49.6c-4.4-12.7-8.8-25.4-11.5-33.1c-15.7,3.8-30.7,11.5-34.9,7.6c-9.9-9.1-12.6-22.4,1.1-35.3
	c7-6.6,8.4-19.5,11.8-29.7c10.1-30.1,22.9-58.5,50.9-82.6c8.1,11.7,15.8,22.6,25.8,37c9.7-22.4,9.2-43.1,31.6-53.2
	c-3.3,44.9,47.7,39.3,78.1,39c-4.6,19.3,13.2,44.5-20.3,55.7C544.1,470.1,556.4,478.1,568.7,486.1z"/>
<path class="st4" d="M469.8,364.6c-22.3,10.1-21.9,30.8-31.6,53.2c-10.1-14.4-17.7-25.3-25.8-37c-28.1,24-40.8,52.5-50.9,82.6
	c-3.4,10.2-4.8,23-11.8,29.7c-13.6,12.9-11,26.1-1.1,35.3c4.2,3.9,19.3-3.8,34.9-7.6c2.7,7.7,7.1,20.4,11.5,33.1
	c-39.1,6.4-40.8,15.2-29.5,49.5c-44.4-54.5-53.2-125.2-19-187.9c51.1-91.3,17-192.2-85-219.3c-1.8-19.6,16.1-38,30.6-56.7
	C361.5,40.6,507.9,7,613.4,64.8c-12.9,3.8-25.8,7.6-44.3,13.1c16.7,12.8,27.6,21.2,45.2,34.7c-62.7,17.5-52,22.1-7.9,54.8
	c19.5-16.3,29.2-15.2,45.2,6.7c-23.8,8.3-19.3,22.1-4.9,36.7c-43.1,33.6-45.5-8.1-81.5,2.4c-76.6,28.4-43.1,17.2-21.8,73.4
	c-8.6-1.4-17.3-2.9-25.9-4.3c-14-6.2-24.4-5.4-26.1,13c-2.6,2.9-5.3,5.8-7.9,8.7c7.6-63.6-72.9-61.1-69.1-11.7
	c2.5,11.9,13.4,22.1,20.5,33.1c3,1.5,6,2.9,9.1,4.4l0.3-0.4c6.2,3.2,12.5,6.4,19.4,9.9C465.5,346.9,467.6,355.8,469.8,364.6z"/>
<path class="st5" d="M608.6,399.4c-23.7,24.1-40.4,51.4-40,86.7c-12.3-8-24.5-16-41.1-26.8c33.5-11.2,15.7-36.4,20.3-55.7
	c24.7-21.2,52.4-40.4,43.4-78c18.6,5.7,37.1,11.4,47.3,14.6c4.9,24.3,8.4,41.3,10.9,53.6c20.9-10,38.9-24.8,57.6-25.7
	c17.6-0.8,30-2.7,40.2-16.6c10.2-0.1,20.4-0.1,30.6-0.2l-0.2-0.1c2.9,1.5,5.9,2.9,8.9,4.4l-0.2-0.1c2.9,1.6,5.7,3.1,8.6,4.6
	c-1.6,16.2,7.2,21.8,21.9,21.5c2.9,4.3,5.9,8.6,8.8,12.9l0,0c73.9,71,41.2,161,86.3,194.2c14.1,10,23.3,26.6,34.7,40.3
	c1.4,23.4-20.6,13.8-30.3,21.6C739.5,665,693,559.3,620.1,581.9c-13.4-25.8-13.8-56.2-19.2-84.5c-3.8-43.5,23.3,0.9,24.7-76.8l0,0.2
	c3.6-2.8-3.7,2.6,0-0.2c2.6-7.4,3.2-8.6,4.8-12.6c-1.5-1.4-3-2.8-4.5-4.3 M840.6,473.3c-27-13.1-58.4,20.8-28.1,27.5
	C821.8,493.2,830,484.1,840.6,473.3z"/>
<path class="st3" d="M747.3,351.6c-10.1,13.9-22.6,15.7-40.2,16.6c-18.7,0.9-36.7,15.7-57.6,25.7c-2.5-12.3-6-29.4-10.9-53.6
	c-10.2-3.2-28.8-8.9-47.3-14.6c-9.1-21.4-26.1-33-47.7-39c-21.3-56.1-54.8-45,21.8-73.4c35.9-10.5,38.6,31.2,81.5-2.4
	c-14.4-14.6-19-28.4,4.9-36.7c-16-21.9-25.7-23.1-45.2-6.7c-44.5-32.7-54.5-37.4,7.9-54.8c-17.6-13.5-28.5-21.9-45.2-34.7
	c18.6-5.5,31.4-9.3,44.3-13.1l-0.4,0.3c2.9,1.5,5.8,2.9,8.8,4.4l0-0.1c12.4,11.2,27.5,18.4,39.3,30.3c2,13.5,4,27,5.9,40.5
	c11.1-1.8,22.1-4.4,33.2-5.6c1.3,1.4,2.6,2.9,3.8,4.4c-0.8,12.3-0.9,24.1,17,21.9c8.8,28.8,30.3,56.3,25.4,87.3
	c-3,16.8,14.1,40.1-16.7,49c3.8,11.3,25.1,21.8,4.9,32.3C739.4,337.8,743.4,344.7,747.3,351.6z M693.2,223.4
	c-12.3,20.3-14,20.6,0,36.2C709.3,242.5,711.3,245.2,693.2,223.4z"/>
<path class="st6" d="M187.1,311.6c-6.5-31.4,16.7-53.6,36.4-72.4c29.4-28.2,77.4-13.1,97.6,16.3c10.8,15.8,16.6,35.5,21.8,54.3
	c1.5,5.3-5.8,17.8-11.4,19.5C223.7,363.3,224.2,466.1,187.1,311.6C188.7,311.3,185.3,311.9,187.1,311.6z"/>
<path class="st7" d="M620,581.9c71.7-22.9,120.5,83.3,296.3,68.9c5.5,14.4,6.6,27-13.5,29.6c-26.1,3.4-52.2,6.6-78.3,9.9
	C736.1,685.8,670.3,656.4,620,581.9z"/>
<path class="st6" d="M266.8,386.7c25.2-13.2,47.5-25.2,70.2-36.3c1.9-1,9.5,3.7,9.8,6.2c1.7,15.2-17.3,44.5-31.6,50.3
	C301.1,412.6,289.3,408.5,266.8,386.7z"/>
<path class="st4" d="M824.5,690.3c26.1-3.3,52.2-6.6,78.3-9.9c20.2-2.6,19-15.1,13.5-29.6c9.7-7.8,31.7,1.7,30.3-21.6
	c18.6,6.8,15.4,19.5,5.9,30.3c-24,27.4-55,40.4-91.4,38.2C848.9,696.9,836.7,692.8,824.5,690.3z"/>
<path class="st6" d="M481.6,726.2c0-20,23.2-12.3,33.1-12.8c19.3-1,39.2,5.6,58.3,10.9c4.6,1.3,7.3,9.6,10.8,14.7
	c-6.3,2.3-13.1,7.4-18.8,6.3C538.4,740.2,511.9,733.4,481.6,726.2z"/>
<path class="st3" d="M625.5,420.6c-3.6,103.7-44.1-7.4-13.2,144.9C582.9,529.1,579.5,445,625.5,420.6z"/>
<path class="st4" d="M747.3,351.6c-3.9-6.9-7.9-13.8-12.8-22.2c20.1-10.5-1.1-21-4.9-32.3c30.8-8.9,13.7-32.2,16.7-49
	c1.3-7.2,0.5-14.7,0.7-22.1c2.6,23.8,9.6,48.2,6.8,71.4c-3.1,25.3-3.5,44.5,24.1,54C767.7,351.5,757.5,351.5,747.3,351.6z"/>
<path class="st6" d="M461.9,705.1c-11.8,16.2-37.2,32-51.6,9.4C419.7,697.9,444.7,686.7,461.9,705.1z"/>
<path class="st4" d="M700.2,134.6c-11.1,1.2-22.1,3.9-33.2,5.6c-2-13.5-4-27-5.9-40.5C681.2,103.5,692.6,116.9,700.2,134.6z"/>
<path class="st4" d="M560.7,697.6c-34.8-8.2-69.7-16.5-104.5-24.8c0.7-0.3,1.4-1,1.9-0.8"/>
<path class="st4" d="M365.4,603.5c4.4-2,8.9-4,17.3-7.9c0,11.1,0,20.5,0,30C377,618.2,371.3,610.8,365.4,603.5z"/>
<path class="st4" d="M721,160.8c-17.9,2.2-17.7-9.5-17-21.9C709.7,146.2,715.3,153.5,721,160.8z"/>
<path class="st4" d="M816.8,381.8c-14.7,0.3-23.5-5.3-21.9-21.5C802.3,367.5,809.6,374.6,816.8,381.8z"/>
<path class="st3" d="M625.9,403.7c-5.8-1.5-11.5-2.9-17.3-4.4"/>
<path class="st4" d="M638.5,82.9c-5.6-4.5-11.1-9-16.7-13.4C627.3,73.9,632.9,78.4,638.5,82.9z"/>
<path class="st4" d="M661,99.7c-4.4-3.9-8.9-7.9-13.3-11.9C652.1,91.8,656.5,95.7,661,99.7z"/>
<path class="st3" d="M636.4,412.4c-3.6,2.8-7.2,5.6-10.9,8.4c1.6-4.3,3.2-8.5,4.8-12.8"/>
<path class="st4" d="M825.7,394.7c-2.9-4.3-5.9-8.6-8.8-12.9C819.8,386.1,822.7,390.4,825.7,394.7z"/>
<path class="st4" d="M834.6,403.5c-3-2.9-6-5.8-9-8.8C828.6,397.6,831.6,400.6,834.6,403.5z"/>
<path class="st4" d="M795,360.3c-2.9-1.6-5.7-3.1-8.6-4.6C789.3,357.2,792.1,358.7,795,360.3z"/>
<path class="st4" d="M786.6,355.8c-2.9-1.5-5.9-2.9-8.9-4.4C780.7,352.8,783.6,354.3,786.6,355.8z"/>
<path class="st4" d="M621.8,69.6c-2.9-1.5-5.8-2.9-8.8-4.4C616,66.6,618.9,68.1,621.8,69.6z"/>
<path class="st4" d="M846.7,420.8c-1.3-1.6-2.6-3.3-3.8-4.9C844.2,417.6,845.4,419.2,846.7,420.8z"/>
<path class="st7" d="M543.5,286.6c59.1,14.6,64.9,76.1,15.3,107.2c-3.9,2.9-7.3,6.6-10.9,9.9c-30.3,0.4-81.4,5.8-78.1-39
	c-2.1-8.9-4.3-17.8-6.1-25.4c-6.9-3.6-13.2-6.7-19.4-9.9c24.1,1.2,33.2-19.4,47.2-34.1c8.7-4.3,17.4-8.7,26.1-13
	C526.2,283.7,534.9,285.1,543.5,286.6z"/>
<path class="st0" d="M483.6,303.9c-9.5,14-20.3,26-39.3,25.5l-0.3,0.4c-3-1.5-6-2.9-9.1-4.4c-7.2-11-18.1-21.2-20.5-33.1
	C410.6,243,491.1,240.5,483.6,303.9z"/>
<path class="st3" d="M517.6,282.3c-8.7,4.3-17.4,8.7-26.1,13C493.2,276.9,503.6,276,517.6,282.3z"/>
<path class="st7" d="M435,325.3c3,1.5,6,2.9,9.1,4.4C441,328.2,438,326.8,435,325.3z"/>
<path class="st4" d="M840.6,473.3c-10.6,10.8-18.8,19.9-28.1,27.6C782.2,494.2,813.7,460.2,840.6,473.3z"/>
<path class="st4" d="M693.2,223.4c18.1,21.7,16,19.1,0,36.2C679.2,244,681,243.7,693.2,223.4z"/>
</svg>
