<?xml version="1.0" encoding="iso-8859-1"?>
<!-- Uploaded to: SVG Repo, www.svgrepo.com, Generator: SVG Repo Mixer Tools -->
<svg version="1.1" id="Capa_1" xmlns="http://www.w3.org/2000/svg" xmlns:xlink="http://www.w3.org/1999/xlink" 
	 viewBox="0 0 440.928 440.928" xml:space="preserve">
<g>
	<g id="XMLID_28_">
		<g>
			<path style="fill:#E2B369;" d="M398.104,282.228l-0.01,109.36c-8.81-2.04-15.4-9.94-15.4-19.37v-97.61
				C386.844,278.558,392.174,281.298,398.104,282.228z"/>
			<rect x="42.824" y="401.118" style="fill:#E2B369;" width="355.27" height="30.81"/>
			<path d="M58.224,372.218h0.01v-97.61c-4.16,3.95-9.49,6.69-15.41,7.62v109.36C51.634,389.548,58.224,381.648,58.224,372.218z
				 M187.444,281.518c0,18.2,14.81,33.02,33.02,33.02c18.2,0,33.01-14.82,33.01-33.02v-29.26c0-58.81,8.13-114.44,24.16-165.34
				c1.82-5.8,2.75-11.85,2.75-18c0-16.53-6.59-31.93-18.56-43.35c-11.25-10.74-25.84-16.57-41.34-16.57c-0.96,0-1.92,0.02-2.89,0.07
				c-31.02,1.44-56.07,26.9-57.03,57.97c-0.2,6.59,0.66,13.1,2.56,19.33c16.14,53.05,24.32,105.46,24.32,155.77V281.518z
				 M382.694,372.218c0,9.43,6.59,17.33,15.4,19.37l0.01-109.36c-5.93-0.93-11.26-3.67-15.41-7.62V372.218z M407.104,273.578
				l-0.01,123.05v44.3H33.824v-39.81v-127.54h4.5c10.97,0,19.9-8.93,19.9-19.91h0.01v-4.16h120.21v-7.37
				c0-49.42-8.05-100.95-23.93-153.15c-2.19-7.17-3.17-14.65-2.94-22.23c1.1-35.73,29.91-65.02,65.6-66.68
				c19.05-0.89,37.11,5.85,50.87,18.98c13.76,13.14,21.34,30.85,21.34,49.86c0,7.07-1.07,14.03-3.17,20.71
				c-15.5,49.22-23.46,103.01-23.71,159.88h120.19v4.16c0,10.98,8.93,19.91,19.91,19.91H407.104z M398.094,431.928v-30.81H42.824
				v30.81H398.094z M59.254,392.118h322.41c-3.95-4.16-6.69-9.48-7.62-15.4H66.874C65.944,382.638,63.214,387.958,59.254,392.118z
				 M373.694,367.718v-109.21h-111.22v23.01c0,23.17-18.84,42.02-42.01,42.02s-42.02-18.85-42.02-42.02v-23.01H67.234v109.21
				H373.694z"/>
			<path style="fill:#E2B369;" d="M374.044,376.718c0.93,5.92,3.67,11.24,7.62,15.4H59.254c3.96-4.16,6.69-9.48,7.62-15.4H374.044z"
				/>
			<path style="fill:#FFCC73;" d="M253.474,281.518c0,18.2-14.81,33.02-33.01,33.02c-18.21,0-33.02-14.82-33.02-33.02v-39.38
				c0-50.31-8.18-102.72-24.32-155.77c-1.9-6.23-2.76-12.74-2.56-19.33c0.96-31.07,26.01-56.53,57.03-57.97
				c0.97-0.05,1.93-0.07,2.89-0.07c15.5,0,30.09,5.83,41.34,16.57c11.97,11.42,18.56,26.82,18.56,43.35c0,6.15-0.93,12.2-2.75,18
				c-16.03,50.9-24.16,106.53-24.16,165.34V281.518z"/>
			<path style="fill:#FFCC73;" d="M178.444,281.518c0,23.17,18.85,42.02,42.02,42.02s42.01-18.85,42.01-42.02v-23.01h111.22v109.21
				H67.234v-109.21h111.21V281.518z"/>
			<path style="fill:#E2B369;" d="M58.234,274.608v97.61h-0.01c0,9.43-6.59,17.33-15.4,19.37v-109.36
				C48.744,281.298,54.074,278.558,58.234,274.608z"/>
		</g>
	</g>
</g>
</svg>